<?xml version="1.0" encoding="UTF-8"?>
<svg id="Livello_1" xmlns="http://www.w3.org/2000/svg" version="1.1" viewBox="0 0 500 300">
  <!-- Generator: Adobe Illustrator 30.3.0, SVG Export Plug-In . SVG Version: 2.1.3 Build 182)  -->
  <defs>
    <style>
      .st0 {
        fill: #004f9e;
      }
    </style>
  </defs>
  <g>
    <g id="_Ripetizione_radiale_">
      <path class="st0" d="M253.47,274.98c1.25.65,2.21,1.61,2.86,2.86s.98,2.46.98,3.66c0,1.32-.33,2.56-.98,3.75-.65,1.2-1.61,2.11-2.86,2.76s-2.48.98-3.66.98c-1.32,0-2.56-.33-3.76-.98s-2.11-1.58-2.78-2.76c-.65-1.2-.98-2.45-.98-3.75,0-1.2.33-2.41.98-3.66s1.58-2.21,2.78-2.86,2.45-.98,3.76-.98c1.2,0,2.41.33,3.66.98Z"/>
    </g>
    <g id="_Ripetizione_radiale_-2">
      <path class="st0" d="M242.85,274.83c1.2.75,2.06,1.8,2.61,3.1s.77,2.55.67,3.73c-.12,1.3-.55,2.53-1.3,3.66s-1.78,1.96-3.08,2.51-2.55.77-3.75.67c-1.3-.12-2.53-.55-3.66-1.3s-1.98-1.75-2.53-3c-.55-1.25-.77-2.51-.67-3.83.1-1.18.53-2.38,1.28-3.56.77-1.18,1.76-2.06,3.01-2.61s2.51-.77,3.83-.67c1.2.1,2.38.53,3.58,1.28v.02Z"/>
    </g>
    <g id="_Ripetizione_radiale_-3">
      <path class="st0" d="M232.28,273.77c1.12.85,1.9,1.96,2.33,3.3.43,1.35.55,2.6.35,3.78-.22,1.3-.75,2.46-1.6,3.53s-1.95,1.81-3.3,2.25c-1.35.43-2.6.55-3.78.35-1.3-.22-2.46-.75-3.53-1.6-1.07-.85-1.81-1.91-2.26-3.2-.45-1.28-.55-2.58-.33-3.86.2-1.18.73-2.31,1.58-3.45.87-1.12,1.93-1.91,3.21-2.35,1.28-.45,2.58-.55,3.86-.33,1.18.2,2.33.73,3.45,1.58h.02Z"/>
    </g>
    <g id="_Ripetizione_radiale_-4">
      <path class="st0" d="M221.84,271.82c1.05.95,1.73,2.11,2.05,3.48.32,1.38.33,2.65.03,3.8-.33,1.27-.97,2.4-1.9,3.38s-2.1,1.65-3.46,1.96c-1.38.32-2.65.33-3.8.03-1.27-.33-2.4-.97-3.38-1.9s-1.65-2.06-1.98-3.38c-.33-1.32-.33-2.61,0-3.88.3-1.15.93-2.25,1.88-3.3.95-1.05,2.08-1.73,3.41-2.06,1.32-.33,2.61-.33,3.88,0,1.15.3,2.25.92,3.3,1.88l-.03-.02Z"/>
    </g>
    <g id="_Ripetizione_radiale_-5">
      <path class="st0" d="M211.6,269c.97,1.03,1.55,2.25,1.75,3.65s.1,2.66-.3,3.78c-.43,1.23-1.17,2.31-2.18,3.21s-2.23,1.47-3.63,1.66c-1.4.2-2.66.1-3.78-.3-1.23-.43-2.31-1.17-3.21-2.18s-1.47-2.2-1.7-3.53c-.22-1.33-.12-2.63.33-3.86.4-1.13,1.12-2.16,2.15-3.13s2.23-1.55,3.56-1.76c1.35-.22,2.63-.12,3.86.33,1.13.4,2.16,1.12,3.13,2.15l.02-.02Z"/>
    </g>
    <g id="_Ripetizione_radiale_-6">
      <path class="st0" d="M201.64,265.31c.87,1.12,1.35,2.38,1.43,3.78.08,1.42-.12,2.66-.62,3.75-.53,1.2-1.35,2.2-2.45,3.01-1.08.82-2.35,1.27-3.75,1.35-1.42.08-2.66-.12-3.75-.62-1.2-.53-2.2-1.35-3.01-2.45-.82-1.08-1.28-2.31-1.38-3.66-.1-1.35.12-2.63.65-3.83.5-1.08,1.3-2.06,2.4-2.93,1.12-.87,2.35-1.37,3.71-1.47,1.35-.1,2.63.12,3.83.65,1.08.5,2.06,1.28,2.93,2.4v.02Z"/>
    </g>
    <g id="_Ripetizione_radiale_-7">
      <path class="st0" d="M192.02,260.8c.77,1.18,1.15,2.48,1.1,3.9-.03,1.42-.35,2.63-.93,3.68-.63,1.15-1.53,2.08-2.7,2.8-1.15.72-2.43,1.07-3.85,1.03s-2.63-.35-3.68-.93c-1.15-.63-2.08-1.53-2.8-2.68s-1.08-2.41-1.07-3.78c0-1.37.33-2.61.98-3.76.58-1.05,1.47-1.95,2.65-2.71s2.46-1.15,3.81-1.15,2.61.33,3.76.97c1.05.58,1.95,1.47,2.73,2.65h-.02Z"/>
    </g>
    <g id="_Ripetizione_radiale_-8">
      <path class="st0" d="M182.83,255.49c.67,1.25.93,2.56.77,3.96-.17,1.4-.57,2.6-1.25,3.58-.73,1.08-1.7,1.95-2.91,2.56s-2.51.85-3.93.7c-1.4-.17-2.6-.57-3.6-1.23-1.08-.73-1.95-1.71-2.56-2.91-.62-1.22-.87-2.5-.75-3.85.13-1.35.55-2.58,1.28-3.66.67-.98,1.63-1.81,2.86-2.48,1.25-.67,2.55-.95,3.9-.82,1.35.12,2.58.55,3.66,1.28.98.67,1.81,1.61,2.5,2.86h.03Z"/>
    </g>
    <g id="_Ripetizione_radiale_-9">
      <path class="st0" d="M174.12,249.41c.57,1.3.7,2.63.43,4.03-.28,1.38-.78,2.55-1.55,3.46-.82,1.02-1.86,1.78-3.13,2.3-1.25.52-2.58.63-3.96.37-1.38-.28-2.55-.78-3.46-1.53-1.02-.82-1.78-1.86-2.3-3.11-.52-1.27-.65-2.56-.42-3.9s.77-2.51,1.6-3.53c.75-.93,1.76-1.66,3.06-2.23s2.61-.72,3.96-.48c1.33.23,2.51.77,3.55,1.6.93.75,1.68,1.76,2.23,3.06l-.02-.03Z"/>
    </g>
    <g id="_Ripetizione_radiale_-10">
      <path class="st0" d="M165.95,242.63c.45,1.33.48,2.68.08,4.05-.4,1.37-1,2.46-1.83,3.33-.9.95-2.01,1.63-3.31,2.03-1.3.4-2.63.42-3.98.02-1.37-.4-2.46-1-3.33-1.83-.95-.9-1.63-2.01-2.03-3.31s-.43-2.61-.08-3.91c.35-1.32.98-2.45,1.9-3.4.83-.87,1.91-1.52,3.25-1.96,1.33-.45,2.66-.5,3.98-.15s2.45.98,3.4,1.88c.87.83,1.52,1.9,1.96,3.25v.02Z"/>
    </g>
    <g id="_Ripetizione_radiale_-11">
      <path class="st0" d="M158.39,235.17c.33,1.37.25,2.71-.25,4.03-.5,1.32-1.22,2.36-2.1,3.16-.98.87-2.15,1.45-3.46,1.75-1.33.3-2.65.18-3.98-.32-1.32-.52-2.36-1.22-3.16-2.1-.87-.98-1.45-2.15-1.75-3.46-.3-1.33-.22-2.63.25-3.91.47-1.28,1.18-2.35,2.16-3.21.9-.78,2.03-1.35,3.4-1.68s2.7-.27,3.98.2,2.35,1.18,3.21,2.16c.78.9,1.35,2.03,1.68,3.4l.02-.02Z"/>
    </g>
    <g id="_Ripetizione_radiale_-12">
      <path class="st0" d="M151.5,227.1c.22,1.4.02,2.73-.6,4s-1.4,2.26-2.36,2.96c-1.05.78-2.25,1.27-3.6,1.45s-2.66-.03-3.93-.65c-1.27-.62-2.26-1.4-2.96-2.36-.78-1.05-1.27-2.25-1.45-3.6s0-2.65.58-3.88c.57-1.23,1.38-2.25,2.43-3.01.97-.72,2.13-1.17,3.53-1.4,1.4-.22,2.71-.03,3.95.53,1.23.57,2.25,1.38,3.03,2.43.72.97,1.18,2.13,1.4,3.53h-.02Z"/>
    </g>
    <g id="_Ripetizione_radiale_-13">
      <path class="st0" d="M145.3,218.48c.1,1.4-.22,2.73-.93,3.93-.72,1.22-1.6,2.13-2.61,2.76-1.12.68-2.35,1.07-3.71,1.13s-2.65-.27-3.86-.98c-1.22-.73-2.13-1.6-2.76-2.61-.68-1.12-1.07-2.35-1.13-3.71-.07-1.37.23-2.63.92-3.81.67-1.18,1.56-2.11,2.68-2.8,1.02-.63,2.23-.98,3.65-1.08s2.71.18,3.9.87c1.18.67,2.11,1.56,2.8,2.68.63,1.02.98,2.23,1.08,3.63h0Z"/>
    </g>
    <g id="_Ripetizione_radiale_-14">
      <path class="st0" d="M139.88,209.35c-.02,1.42-.45,2.7-1.27,3.85-.83,1.15-1.76,1.98-2.83,2.53-1.17.58-2.43.87-3.8.82s-2.61-.48-3.76-1.3c-1.15-.83-2-1.76-2.53-2.83-.58-1.17-.87-2.43-.82-3.8.05-1.37.47-2.6,1.23-3.73.77-1.12,1.75-1.98,2.91-2.56,1.07-.53,2.3-.8,3.71-.78s2.68.42,3.8,1.18,1.98,1.75,2.56,2.91c.53,1.07.8,2.3.78,3.71h0Z"/>
    </g>
    <g id="_Ripetizione_radiale_-15">
      <path class="st0" d="M135.23,199.81c-.13,1.4-.67,2.65-1.58,3.71-.92,1.08-1.93,1.83-3.03,2.28-1.22.48-2.5.65-3.85.48s-2.56-.7-3.65-1.61c-1.08-.92-1.83-1.93-2.28-3.03-.48-1.22-.65-2.5-.48-3.85s.68-2.55,1.53-3.61c.87-1.05,1.9-1.81,3.11-2.31,1.12-.45,2.36-.6,3.76-.45s2.65.65,3.7,1.5c1.05.87,1.81,1.9,2.31,3.11.45,1.12.6,2.36.45,3.76v.02Z"/>
    </g>
    <g id="_Ripetizione_radiale_-16">
      <path class="st0" d="M131.42,189.91c-.27,1.38-.9,2.58-1.9,3.56-1,1-2.08,1.66-3.21,2.01-1.25.38-2.55.43-3.88.17-1.33-.28-2.5-.92-3.5-1.91-1-1-1.66-2.08-2.01-3.21-.38-1.25-.43-2.55-.17-3.88.28-1.33.9-2.48,1.85-3.46.95-.97,2.05-1.65,3.3-2.03,1.15-.35,2.4-.4,3.8-.13,1.38.27,2.58.87,3.55,1.81.98.95,1.65,2.05,2.03,3.3.35,1.15.4,2.4.13,3.8l.02-.02Z"/>
    </g>
    <g id="_Ripetizione_radiale_-17">
      <path class="st0" d="M128.46,179.72c-.38,1.37-1.12,2.5-2.2,3.4s-2.21,1.48-3.38,1.73c-1.28.28-2.58.22-3.88-.17-1.3-.38-2.41-1.13-3.31-2.21-.9-1.08-1.48-2.21-1.73-3.38-.28-1.28-.22-2.58.17-3.88s1.1-2.4,2.13-3.3c1.03-.88,2.18-1.48,3.46-1.75,1.17-.25,2.43-.18,3.8.18,1.37.38,2.5,1.08,3.38,2.11.9,1.03,1.48,2.18,1.75,3.46.25,1.17.18,2.43-.18,3.8h0Z"/>
    </g>
    <g id="_Ripetizione_radiale_-18">
      <path class="st0" d="M126.38,169.31c-.48,1.32-1.32,2.4-2.48,3.2-1.17.82-2.33,1.28-3.51,1.43-1.3.17-2.58,0-3.85-.5-1.27-.5-2.3-1.33-3.11-2.48-.8-1.17-1.28-2.33-1.43-3.51-.17-1.3,0-2.58.5-3.85s1.3-2.3,2.4-3.1,2.3-1.28,3.6-1.45c1.18-.15,2.43.02,3.76.5,1.33.5,2.4,1.28,3.2,2.38.8,1.1,1.28,2.3,1.45,3.6.15,1.18,0,2.43-.52,3.76v.02Z"/>
    </g>
    <g id="_Ripetizione_radiale_-19">
      <path class="st0" d="M125.18,158.76c-.6,1.28-1.52,2.28-2.73,2.98-1.23.72-2.43,1.08-3.63,1.13-1.32.05-2.58-.22-3.8-.82s-2.18-1.52-2.9-2.75c-.7-1.23-1.08-2.43-1.13-3.61-.05-1.32.22-2.58.82-3.8s1.5-2.18,2.65-2.88c1.17-.7,2.4-1.08,3.71-1.13,1.2-.05,2.43.23,3.71.83s2.28,1.48,2.98,2.65c.7,1.17,1.08,2.4,1.13,3.71.05,1.2-.22,2.43-.83,3.7l.02-.02Z"/>
    </g>
    <g id="_Ripetizione_radiale_-20">
      <path class="st0" d="M124.89,148.15c-.7,1.22-1.7,2.13-2.98,2.73s-2.51.88-3.71.83c-1.32-.05-2.55-.43-3.71-1.13s-2.05-1.7-2.65-2.98c-.6-1.28-.88-2.51-.83-3.7.05-1.32.43-2.55,1.13-3.71.7-1.17,1.66-2.05,2.9-2.65,1.22-.6,2.48-.88,3.8-.82,1.2.05,2.4.43,3.63,1.13,1.22.72,2.13,1.68,2.75,2.9.6,1.22.88,2.48.82,3.8-.05,1.2-.43,2.4-1.13,3.61v-.02Z"/>
    </g>
    <g id="_Ripetizione_radiale_-21">
      <path class="st0" d="M125.49,137.56c-.8,1.15-1.88,1.98-3.2,2.48-1.33.5-2.58.67-3.76.5-1.3-.17-2.5-.65-3.6-1.45s-1.9-1.86-2.38-3.18c-.48-1.33-.67-2.58-.52-3.76.17-1.3.65-2.5,1.45-3.6s1.83-1.9,3.1-2.4c1.27-.5,2.55-.67,3.85-.5,1.18.15,2.35.63,3.51,1.43,1.17.82,1.98,1.85,2.48,3.11.5,1.27.67,2.55.5,3.85-.15,1.18-.63,2.35-1.43,3.51Z"/>
    </g>
    <g id="_Ripetizione_radiale_-22">
      <path class="st0" d="M127.01,127.06c-.9,1.08-2.05,1.81-3.4,2.2-1.37.38-2.63.43-3.8.18-1.28-.28-2.43-.85-3.46-1.75-1.03-.88-1.73-2.01-2.11-3.38-.37-1.37-.43-2.63-.18-3.8.28-1.28.87-2.43,1.75-3.46.9-1.03,2-1.73,3.3-2.13,1.3-.38,2.6-.45,3.88-.17,1.17.25,2.3.83,3.38,1.73,1.08.9,1.83,2.01,2.21,3.31.38,1.3.45,2.6.17,3.88-.25,1.17-.83,2.3-1.73,3.38Z"/>
    </g>
    <g id="_Ripetizione_radiale_-23">
      <path class="st0" d="M129.39,116.7c-1,1-2.18,1.63-3.58,1.9s-2.65.22-3.8-.13c-1.25-.38-2.36-1.07-3.3-2.03-.95-.97-1.55-2.16-1.81-3.55-.25-1.38-.22-2.65.13-3.8.38-1.25,1.07-2.35,2.03-3.3.98-.95,2.13-1.56,3.46-1.83,1.33-.28,2.63-.22,3.88.17,1.15.35,2.21,1.02,3.21,2.01s1.65,2.16,1.93,3.48c.28,1.33.22,2.63-.17,3.88-.35,1.15-1.02,2.21-2.01,3.21l.02-.02Z"/>
    </g>
    <g id="_Ripetizione_radiale_-24">
      <path class="st0" d="M132.65,106.61c-1.07.92-2.31,1.45-3.73,1.58-1.42.15-2.66,0-3.76-.45-1.22-.48-2.26-1.25-3.11-2.31-.87-1.05-1.37-2.28-1.52-3.68-.13-1.4,0-2.66.45-3.76.48-1.22,1.27-2.25,2.31-3.11,1.05-.87,2.26-1.37,3.61-1.53,1.35-.17,2.63,0,3.85.48,1.12.45,2.11,1.2,3.03,2.28s1.47,2.3,1.61,3.65c.17,1.35,0,2.63-.48,3.85-.45,1.12-1.2,2.11-2.28,3.03l.02-.02Z"/>
    </g>
    <g id="_Ripetizione_radiale_-25">
      <path class="st0" d="M136.76,96.82c-1.15.82-2.43,1.25-3.85,1.27-1.42.02-2.65-.23-3.71-.78-1.17-.58-2.15-1.45-2.91-2.56s-1.17-2.4-1.18-3.8c-.02-1.42.23-2.65.78-3.71.58-1.17,1.45-2.15,2.56-2.91,1.12-.77,2.36-1.18,3.73-1.23,1.37-.05,2.63.22,3.8.82,1.07.53,2.01,1.38,2.83,2.53.82,1.15,1.27,2.4,1.3,3.76.05,1.37-.22,2.63-.82,3.8-.53,1.07-1.38,2.01-2.53,2.83Z"/>
    </g>
    <g id="_Ripetizione_radiale_-26">
      <path class="st0" d="M141.68,87.42c-1.22.72-2.53,1.03-3.93.93-1.42-.1-2.61-.47-3.65-1.08-1.12-.68-2.01-1.61-2.68-2.8s-.97-2.48-.87-3.9.47-2.61,1.08-3.63c.68-1.12,1.63-2.01,2.8-2.68,1.18-.67,2.46-.97,3.81-.9,1.37.07,2.6.45,3.71,1.13,1.02.63,1.88,1.55,2.61,2.76.72,1.22,1.05,2.5.98,3.86s-.45,2.6-1.13,3.71c-.63,1.02-1.55,1.88-2.76,2.61l.02-.03Z"/>
    </g>
    <g id="_Ripetizione_radiale_-27">
      <path class="st0" d="M147.39,78.46c-1.27.62-2.61.82-4,.6-1.4-.22-2.58-.68-3.53-1.4-1.05-.78-1.86-1.78-2.43-3.01s-.75-2.55-.53-3.95c.22-1.4.68-2.56,1.4-3.53.78-1.05,1.78-1.86,3.03-2.43,1.23-.57,2.53-.77,3.88-.58s2.55.67,3.6,1.45c.97.72,1.75,1.7,2.36,2.96s.83,2.58.65,3.93-.67,2.55-1.45,3.6c-.72.97-1.7,1.75-2.96,2.36h-.02Z"/>
    </g>
    <g id="_Ripetizione_radiale_-28">
      <path class="st0" d="M153.83,70.02c-1.32.5-2.66.6-4.05.25-1.38-.33-2.5-.9-3.4-1.68-.98-.87-1.71-1.93-2.16-3.21-.47-1.28-.53-2.61-.2-3.98s.9-2.5,1.68-3.4c.87-.98,1.95-1.71,3.21-2.16,1.28-.47,2.58-.55,3.91-.25s2.48.88,3.46,1.75c.9.78,1.6,1.85,2.1,3.16s.62,2.65.32,3.96c-.3,1.33-.88,2.48-1.75,3.46-.78.9-1.83,1.6-3.16,2.1h.03Z"/>
    </g>
    <g id="_Ripetizione_radiale_-29">
      <path class="st0" d="M160.95,62.16c-1.35.4-2.71.37-4.05-.08-1.35-.45-2.41-1.1-3.25-1.96-.9-.95-1.53-2.08-1.9-3.4-.35-1.32-.3-2.65.15-3.98s1.1-2.41,1.96-3.25c.95-.9,2.08-1.53,3.4-1.88s2.63-.32,3.93.08c1.3.4,2.4,1.08,3.31,2.03.83.87,1.43,1.96,1.83,3.33.4,1.35.38,2.68-.02,3.98-.4,1.3-1.08,2.4-2.03,3.31-.87.83-1.96,1.43-3.33,1.83l-.02-.02Z"/>
    </g>
    <g id="_Ripetizione_radiale_-30">
      <path class="st0" d="M168.73,54.94c-1.38.28-2.73.13-4.03-.43-1.3-.57-2.31-1.3-3.06-2.23-.82-1.02-1.37-2.2-1.6-3.53s-.08-2.66.48-3.95c.57-1.3,1.32-2.31,2.23-3.06,1.02-.82,2.2-1.35,3.55-1.6,1.33-.23,2.65-.1,3.9.42s2.3,1.28,3.13,2.3c.75.93,1.27,2.08,1.55,3.46s.15,2.71-.37,3.96c-.52,1.27-1.28,2.3-2.3,3.11-.93.75-2.08,1.27-3.46,1.53l-.02.02Z"/>
    </g>
    <g id="_Ripetizione_radiale_-31">
      <path class="st0" d="M177.09,48.38c-1.4.17-2.73-.1-3.98-.77s-2.2-1.5-2.86-2.48c-.73-1.08-1.17-2.3-1.28-3.66-.13-1.35.15-2.65.82-3.9s1.5-2.2,2.5-2.86c1.08-.73,2.31-1.17,3.66-1.28s2.65.13,3.85.75c1.22.62,2.18,1.48,2.91,2.56.67.98,1.08,2.18,1.25,3.58.15,1.4-.07,2.71-.7,3.93-.62,1.22-1.48,2.18-2.56,2.91-.98.67-2.18,1.08-3.6,1.23v-.02Z"/>
    </g>
    <g id="_Ripetizione_radiale_-32">
      <path class="st0" d="M185.98,42.57c-1.42.03-2.71-.33-3.9-1.1-1.18-.77-2.06-1.68-2.65-2.71-.63-1.15-.97-2.4-.98-3.76,0-1.37.37-2.63,1.15-3.81s1.68-2.06,2.73-2.65c1.15-.63,2.4-.97,3.76-.97s2.61.35,3.78,1.07c1.15.72,2.05,1.65,2.68,2.8.58,1.05.88,2.26.93,3.68.03,1.42-.3,2.7-1.03,3.85-.72,1.15-1.65,2.05-2.8,2.68-1.05.58-2.26.9-3.68.93Z"/>
    </g>
    <g id="_Ripetizione_radiale_-33">
      <path class="st0" d="M195.33,37.54c-1.42-.08-2.68-.55-3.78-1.43-1.12-.87-1.91-1.85-2.4-2.93-.53-1.2-.77-2.46-.65-3.83.1-1.35.6-2.6,1.47-3.7.87-1.12,1.85-1.91,2.93-2.4,1.2-.53,2.46-.75,3.83-.65,1.35.1,2.58.57,3.66,1.38,1.08.82,1.9,1.81,2.45,3.01.5,1.08.7,2.33.62,3.75-.08,1.42-.53,2.66-1.35,3.75s-1.83,1.9-3.01,2.45c-1.08.5-2.33.7-3.75.62l-.02-.02Z"/>
    </g>
    <g id="_Ripetizione_radiale_-34">
      <path class="st0" d="M205.07,33.31c-1.4-.2-2.61-.78-3.65-1.75s-1.75-2-2.15-3.13c-.43-1.23-.55-2.53-.33-3.86.22-1.33.82-2.53,1.78-3.56s2-1.75,3.13-2.15c1.23-.43,2.53-.55,3.86-.33,1.35.22,2.53.78,3.55,1.7,1.02.9,1.75,1.98,2.18,3.21.4,1.13.5,2.38.3,3.78s-.75,2.61-1.66,3.61c-.9,1.02-1.98,1.73-3.21,2.18-1.13.4-2.38.5-3.78.3h-.02Z"/>
    </g>
    <g id="_Ripetizione_radiale_-35">
      <path class="st0" d="M215.13,29.91c-1.38-.32-2.55-1-3.5-2.05-.95-1.05-1.58-2.15-1.88-3.3-.33-1.27-.33-2.56,0-3.88s1.03-2.45,2.06-3.4c1.05-.95,2.15-1.56,3.3-1.88,1.27-.33,2.56-.33,3.88,0s2.45,1,3.38,1.98c.93.98,1.56,2.11,1.9,3.38.3,1.15.28,2.41-.03,3.8-.32,1.38-.98,2.53-1.96,3.46-.98.93-2.11,1.56-3.38,1.9-1.15.3-2.41.3-3.8-.03l.03.02Z"/>
    </g>
    <g id="_Ripetizione_radiale_-36">
      <path class="st0" d="M225.45,27.4c-1.35-.43-2.45-1.22-3.3-2.33-.87-1.13-1.38-2.26-1.58-3.45-.22-1.3-.12-2.58.33-3.86s1.23-2.36,2.35-3.21c1.13-.85,2.26-1.38,3.45-1.58,1.3-.22,2.58-.12,3.86.33s2.35,1.2,3.2,2.26c.85,1.07,1.38,2.25,1.6,3.53.2,1.18.08,2.43-.35,3.78s-1.18,2.45-2.25,3.28c-1.07.85-2.25,1.38-3.53,1.6-1.18.2-2.43.08-3.78-.35Z"/>
    </g>
    <g id="_Ripetizione_radiale_-37">
      <path class="st0" d="M235.94,25.75c-1.3-.55-2.33-1.42-3.1-2.61s-1.18-2.38-1.28-3.56c-.12-1.3.1-2.58.67-3.83.55-1.25,1.43-2.25,2.61-3,1.2-.75,2.38-1.18,3.58-1.28,1.3-.12,2.58.12,3.83.67s2.25,1.4,3,2.53c.75,1.13,1.18,2.35,1.3,3.66.1,1.18-.12,2.43-.67,3.73s-1.38,2.33-2.51,3.08-2.35,1.18-3.66,1.3c-1.2.1-2.43-.12-3.75-.67l-.02-.02Z"/>
    </g>
    <g id="_Ripetizione_radiale_-38">
      <path class="st0" d="M246.55,25.02c-1.25-.65-2.21-1.61-2.86-2.86s-.98-2.46-.98-3.66c0-1.32.33-2.56.98-3.75.65-1.2,1.61-2.11,2.86-2.76,1.25-.65,2.48-.98,3.66-.98,1.32,0,2.56.33,3.76.98s2.11,1.58,2.78,2.76c.65,1.2.98,2.45.98,3.75,0,1.2-.33,2.41-.98,3.66s-1.58,2.21-2.78,2.86-2.45.98-3.76.98c-1.2,0-2.41-.33-3.66-.98Z"/>
    </g>
    <g id="_Ripetizione_radiale_-39">
      <path class="st0" d="M257.17,25.17c-1.2-.75-2.06-1.8-2.61-3.1s-.77-2.55-.67-3.73c.12-1.3.55-2.53,1.3-3.66s1.78-1.96,3.08-2.51,2.55-.77,3.75-.67c1.3.12,2.53.55,3.66,1.3s1.98,1.75,2.53,3c.55,1.25.77,2.51.67,3.83-.1,1.18-.53,2.38-1.28,3.56-.77,1.18-1.76,2.06-3.01,2.61s-2.51.77-3.83.67c-1.2-.1-2.38-.53-3.58-1.28v-.02Z"/>
    </g>
    <g id="_Ripetizione_radiale_-40">
      <path class="st0" d="M267.72,26.23c-1.12-.85-1.9-1.96-2.33-3.3-.43-1.35-.55-2.6-.35-3.78.22-1.3.75-2.46,1.6-3.53s1.95-1.81,3.3-2.25c1.35-.43,2.6-.55,3.78-.35,1.3.22,2.46.75,3.53,1.6s1.81,1.91,2.26,3.2.55,2.58.33,3.86c-.2,1.18-.73,2.31-1.58,3.45-.87,1.12-1.93,1.91-3.21,2.35-1.28.45-2.58.55-3.86.33-1.18-.2-2.33-.73-3.45-1.58h-.02Z"/>
    </g>
    <g id="_Ripetizione_radiale_-41">
      <path class="st0" d="M278.18,28.18c-1.05-.95-1.73-2.11-2.05-3.48-.32-1.38-.33-2.65-.03-3.8.33-1.27.97-2.4,1.9-3.38s2.1-1.65,3.46-1.96c1.38-.32,2.65-.33,3.8-.03,1.27.33,2.4.97,3.38,1.9s1.65,2.06,1.98,3.38.33,2.61,0,3.88c-.3,1.15-.93,2.25-1.88,3.3-.95,1.05-2.08,1.73-3.41,2.06-1.32.33-2.61.33-3.88,0-1.15-.3-2.25-.92-3.3-1.88l.03.02Z"/>
    </g>
    <g id="_Ripetizione_radiale_-42">
      <path class="st0" d="M288.42,31c-.97-1.03-1.55-2.25-1.75-3.65-.2-1.4-.1-2.66.3-3.78.43-1.23,1.17-2.31,2.18-3.21s2.23-1.47,3.63-1.66,2.66-.1,3.78.3c1.23.43,2.31,1.17,3.21,2.18s1.47,2.2,1.7,3.53c.22,1.33.12,2.63-.33,3.86-.4,1.13-1.12,2.16-2.15,3.13-1.03.97-2.23,1.55-3.56,1.76-1.35.22-2.63.12-3.86-.33-1.13-.4-2.16-1.12-3.13-2.15l-.02.02Z"/>
    </g>
    <g id="_Ripetizione_radiale_-43">
      <path class="st0" d="M298.37,34.69c-.87-1.12-1.35-2.38-1.43-3.78-.08-1.42.12-2.66.62-3.75.53-1.2,1.35-2.2,2.45-3.01,1.08-.82,2.35-1.27,3.75-1.35,1.42-.08,2.66.12,3.75.62,1.2.53,2.2,1.35,3.01,2.45.82,1.08,1.28,2.31,1.38,3.66s-.12,2.63-.65,3.83c-.5,1.08-1.3,2.06-2.4,2.93-1.12.87-2.35,1.37-3.71,1.47-1.35.1-2.63-.12-3.83-.65-1.08-.5-2.06-1.28-2.93-2.4v-.02Z"/>
    </g>
    <g id="_Ripetizione_radiale_-44">
      <path class="st0" d="M307.98,39.2c-.77-1.18-1.15-2.48-1.1-3.9.03-1.42.35-2.63.93-3.68.63-1.15,1.53-2.08,2.7-2.8,1.15-.72,2.43-1.07,3.85-1.03,1.42.03,2.63.35,3.68.93,1.15.63,2.08,1.53,2.8,2.68s1.08,2.41,1.07,3.78c0,1.37-.33,2.61-.98,3.76-.58,1.05-1.47,1.95-2.65,2.71-1.18.77-2.46,1.15-3.81,1.15s-2.61-.33-3.76-.97c-1.05-.58-1.95-1.47-2.73-2.65h.02Z"/>
    </g>
    <g id="_Ripetizione_radiale_-45">
      <path class="st0" d="M317.17,44.51c-.67-1.25-.93-2.56-.77-3.96.17-1.4.57-2.6,1.25-3.58.73-1.08,1.7-1.95,2.91-2.56s2.51-.85,3.93-.7c1.4.17,2.6.57,3.6,1.23,1.08.73,1.95,1.71,2.56,2.91.62,1.22.87,2.5.75,3.85-.13,1.35-.55,2.58-1.28,3.66-.67.98-1.63,1.81-2.86,2.48-1.25.67-2.55.95-3.9.82-1.35-.12-2.58-.55-3.66-1.28-.98-.67-1.81-1.61-2.5-2.86h-.03Z"/>
    </g>
    <g id="_Ripetizione_radiale_-46">
      <path class="st0" d="M325.89,50.59c-.57-1.3-.7-2.63-.43-4.03.28-1.38.78-2.55,1.55-3.46.82-1.02,1.86-1.78,3.13-2.3,1.25-.52,2.58-.63,3.96-.37,1.38.28,2.55.78,3.46,1.53,1.02.82,1.78,1.86,2.3,3.11.52,1.27.65,2.56.42,3.9-.23,1.33-.77,2.51-1.6,3.53-.75.93-1.76,1.66-3.06,2.23s-2.61.72-3.96.48c-1.33-.23-2.51-.77-3.55-1.6-.93-.75-1.68-1.76-2.23-3.06l.02.03Z"/>
    </g>
    <g id="_Ripetizione_radiale_-47">
      <path class="st0" d="M334.05,57.37c-.45-1.33-.48-2.68-.08-4.05.4-1.37,1-2.46,1.83-3.33.9-.95,2.01-1.63,3.31-2.03s2.63-.42,3.98-.02c1.37.4,2.46,1,3.33,1.83.95.9,1.63,2.01,2.03,3.31s.43,2.61.08,3.91c-.35,1.32-.98,2.45-1.9,3.4-.83.87-1.91,1.52-3.25,1.96s-2.66.5-3.98.15c-1.32-.35-2.45-.98-3.4-1.88-.87-.83-1.52-1.9-1.96-3.25v-.02Z"/>
    </g>
    <g id="_Ripetizione_radiale_-48">
      <path class="st0" d="M341.61,64.83c-.33-1.37-.25-2.71.25-4.03.5-1.32,1.22-2.36,2.1-3.16.98-.87,2.15-1.45,3.46-1.75,1.33-.3,2.65-.18,3.98.32,1.32.52,2.36,1.22,3.16,2.1.87.98,1.45,2.15,1.75,3.46.3,1.33.22,2.63-.25,3.91s-1.18,2.35-2.16,3.21c-.9.78-2.03,1.35-3.4,1.68-1.37.33-2.7.27-3.98-.2-1.28-.47-2.35-1.18-3.21-2.16-.78-.9-1.35-2.03-1.68-3.4l-.02.02Z"/>
    </g>
    <g id="_Ripetizione_radiale_-49">
      <path class="st0" d="M348.5,72.9c-.22-1.4-.02-2.73.6-4s1.4-2.26,2.36-2.96c1.05-.78,2.25-1.27,3.6-1.45s2.66.03,3.93.65,2.26,1.4,2.96,2.36c.78,1.05,1.27,2.25,1.45,3.6.18,1.35,0,2.65-.58,3.88-.57,1.23-1.38,2.25-2.43,3.01-.97.72-2.13,1.17-3.53,1.4-1.4.22-2.71.03-3.95-.53-1.23-.57-2.25-1.38-3.03-2.43-.72-.97-1.18-2.13-1.4-3.53h.02Z"/>
    </g>
    <g id="_Ripetizione_radiale_-50">
      <path class="st0" d="M354.7,81.52c-.1-1.4.22-2.73.93-3.93.72-1.22,1.6-2.13,2.61-2.76,1.12-.68,2.35-1.07,3.71-1.13,1.37-.07,2.65.27,3.86.98,1.22.73,2.13,1.6,2.76,2.61.68,1.12,1.07,2.35,1.13,3.71s-.23,2.63-.92,3.81c-.67,1.18-1.56,2.11-2.68,2.8-1.02.63-2.23.98-3.65,1.08-1.42.1-2.71-.18-3.9-.87-1.18-.67-2.11-1.56-2.8-2.68-.63-1.02-.98-2.23-1.08-3.63h0Z"/>
    </g>
    <g id="_Ripetizione_radiale_-51">
      <path class="st0" d="M360.14,90.65c.02-1.42.45-2.7,1.27-3.85.83-1.15,1.76-1.98,2.83-2.53,1.17-.58,2.43-.87,3.8-.82,1.37.05,2.61.48,3.76,1.3,1.15.83,2,1.76,2.53,2.83.58,1.17.87,2.43.82,3.8s-.47,2.6-1.23,3.73c-.77,1.12-1.75,1.98-2.91,2.56-1.07.53-2.3.8-3.71.78-1.42-.02-2.68-.42-3.8-1.18s-1.98-1.75-2.56-2.91c-.53-1.07-.8-2.3-.78-3.71Z"/>
    </g>
    <g id="_Ripetizione_radiale_-52">
      <path class="st0" d="M364.77,100.19c.13-1.4.67-2.65,1.58-3.71.92-1.08,1.93-1.83,3.03-2.28,1.22-.48,2.5-.65,3.85-.48s2.56.7,3.65,1.61c1.08.92,1.83,1.93,2.28,3.03.48,1.22.65,2.5.48,3.85s-.68,2.55-1.53,3.61c-.87,1.05-1.9,1.81-3.11,2.31-1.12.45-2.36.6-3.76.45-1.4-.15-2.65-.65-3.7-1.5-1.05-.87-1.81-1.9-2.31-3.11-.45-1.12-.6-2.36-.45-3.76v-.02Z"/>
    </g>
    <g id="_Ripetizione_radiale_-53">
      <path class="st0" d="M368.58,110.09c.27-1.38.9-2.58,1.9-3.56,1-1,2.08-1.66,3.21-2.01,1.25-.38,2.55-.43,3.88-.17,1.33.28,2.5.92,3.5,1.91s1.66,2.08,2.01,3.21c.38,1.25.43,2.55.17,3.88-.28,1.33-.9,2.48-1.85,3.46-.95.97-2.05,1.65-3.3,2.03-1.15.35-2.4.4-3.8.13-1.38-.27-2.58-.87-3.55-1.81-.98-.95-1.65-2.05-2.03-3.3-.35-1.15-.4-2.4-.13-3.8l-.02.02Z"/>
    </g>
    <g id="_Ripetizione_radiale_-54">
      <path class="st0" d="M371.54,120.28c.38-1.37,1.12-2.5,2.2-3.4,1.08-.9,2.21-1.48,3.38-1.73,1.28-.28,2.58-.22,3.88.17,1.3.38,2.41,1.13,3.31,2.21.9,1.08,1.48,2.21,1.73,3.38.28,1.28.22,2.58-.17,3.88-.38,1.3-1.1,2.4-2.13,3.3-1.03.88-2.18,1.48-3.46,1.75-1.17.25-2.43.18-3.8-.18-1.37-.38-2.5-1.08-3.38-2.11-.9-1.03-1.48-2.18-1.75-3.46-.25-1.17-.18-2.43.18-3.8h0Z"/>
    </g>
    <g id="_Ripetizione_radiale_-55">
      <path class="st0" d="M373.62,130.69c.48-1.32,1.32-2.4,2.48-3.2,1.17-.82,2.33-1.28,3.51-1.43,1.3-.17,2.58,0,3.85.5s2.3,1.33,3.11,2.48c.8,1.17,1.28,2.33,1.43,3.51.17,1.3,0,2.58-.5,3.85s-1.3,2.3-2.4,3.1-2.3,1.28-3.6,1.45c-1.18.15-2.43-.02-3.76-.5-1.33-.5-2.4-1.28-3.2-2.38-.8-1.1-1.28-2.3-1.45-3.6-.15-1.18,0-2.43.52-3.76v-.02Z"/>
    </g>
    <g id="_Ripetizione_radiale_-56">
      <path class="st0" d="M374.82,141.24c.6-1.28,1.52-2.28,2.73-2.98,1.23-.72,2.43-1.08,3.63-1.13,1.32-.05,2.58.22,3.8.82s2.18,1.52,2.9,2.75c.7,1.23,1.08,2.43,1.13,3.61.05,1.32-.22,2.58-.82,3.8s-1.5,2.18-2.65,2.88c-1.17.7-2.4,1.08-3.71,1.13-1.2.05-2.43-.23-3.71-.83-1.28-.6-2.28-1.48-2.98-2.65s-1.08-2.4-1.13-3.71c-.05-1.2.22-2.43.83-3.7l-.02.02Z"/>
    </g>
    <g id="_Ripetizione_radiale_-57">
      <path class="st0" d="M375.12,151.85c.7-1.22,1.7-2.13,2.98-2.73,1.28-.6,2.51-.88,3.71-.83,1.32.05,2.55.43,3.71,1.13s2.05,1.7,2.65,2.98c.6,1.28.88,2.51.83,3.7-.05,1.32-.43,2.55-1.13,3.71s-1.66,2.05-2.9,2.65c-1.22.6-2.48.88-3.8.82-1.2-.05-2.4-.43-3.63-1.13-1.22-.72-2.13-1.68-2.75-2.9-.6-1.22-.88-2.48-.82-3.8.05-1.2.43-2.4,1.13-3.61v.02Z"/>
    </g>
    <g id="_Ripetizione_radiale_-58">
      <path class="st0" d="M374.51,162.44c.8-1.15,1.88-1.98,3.2-2.48,1.33-.5,2.58-.67,3.76-.5,1.3.17,2.5.65,3.6,1.45s1.9,1.86,2.38,3.18c.48,1.33.67,2.58.52,3.76-.17,1.3-.65,2.5-1.45,3.6s-1.83,1.9-3.1,2.4-2.55.67-3.85.5c-1.18-.15-2.35-.63-3.51-1.43-1.17-.82-1.98-1.85-2.48-3.11s-.67-2.55-.5-3.85c.15-1.18.63-2.35,1.43-3.51h0Z"/>
    </g>
    <g id="_Ripetizione_radiale_-59">
      <path class="st0" d="M373.01,172.94c.9-1.08,2.05-1.81,3.4-2.2,1.37-.38,2.63-.43,3.8-.18,1.28.28,2.43.85,3.46,1.75,1.03.88,1.73,2.01,2.11,3.38.37,1.37.43,2.63.18,3.8-.28,1.28-.87,2.43-1.75,3.46-.9,1.03-2,1.73-3.3,2.13-1.3.38-2.6.45-3.88.17-1.17-.25-2.3-.83-3.38-1.73s-1.83-2.01-2.21-3.31-.45-2.6-.17-3.88c.25-1.17.83-2.3,1.73-3.38h0Z"/>
    </g>
    <g id="_Ripetizione_radiale_-60">
      <path class="st0" d="M370.61,183.3c1-1,2.18-1.63,3.58-1.9s2.65-.22,3.8.13c1.25.38,2.36,1.07,3.3,2.03.95.97,1.55,2.16,1.81,3.55.25,1.38.22,2.65-.13,3.8-.38,1.25-1.07,2.35-2.03,3.3-.98.95-2.13,1.56-3.46,1.83-1.33.28-2.63.22-3.88-.17-1.15-.35-2.21-1.02-3.21-2.01-1-1-1.65-2.16-1.93-3.48-.28-1.33-.22-2.63.17-3.88.35-1.15,1.02-2.21,2.01-3.21l-.02.02Z"/>
    </g>
    <g id="_Ripetizione_radiale_-61">
      <path class="st0" d="M367.35,193.39c1.07-.92,2.31-1.45,3.73-1.58,1.42-.15,2.66,0,3.76.45,1.22.48,2.26,1.25,3.11,2.31.87,1.05,1.37,2.28,1.52,3.68.13,1.4,0,2.66-.45,3.76-.48,1.22-1.27,2.25-2.31,3.11-1.05.87-2.26,1.37-3.61,1.53-1.35.17-2.63,0-3.85-.48-1.12-.45-2.11-1.2-3.03-2.28s-1.47-2.3-1.61-3.65c-.17-1.35,0-2.63.48-3.85.45-1.12,1.2-2.11,2.28-3.03l-.02.02Z"/>
    </g>
    <g id="_Ripetizione_radiale_-62">
      <path class="st0" d="M363.25,203.18c1.15-.82,2.43-1.25,3.85-1.27,1.42-.02,2.65.23,3.71.78,1.17.58,2.15,1.45,2.91,2.56s1.17,2.4,1.18,3.8c.02,1.42-.23,2.65-.78,3.71-.58,1.17-1.45,2.15-2.56,2.91s-2.36,1.18-3.73,1.23-2.63-.22-3.8-.82c-1.07-.53-2.01-1.38-2.83-2.53-.82-1.15-1.27-2.4-1.3-3.76-.05-1.37.22-2.63.82-3.8.53-1.07,1.38-2.01,2.53-2.83h0Z"/>
    </g>
    <g id="_Ripetizione_radiale_-63">
      <path class="st0" d="M358.32,212.58c1.22-.72,2.53-1.03,3.93-.93,1.42.1,2.61.47,3.65,1.08,1.12.68,2.01,1.61,2.68,2.8.67,1.18.97,2.48.87,3.9-.1,1.42-.47,2.61-1.08,3.63-.68,1.12-1.63,2.01-2.8,2.68-1.18.67-2.46.97-3.81.9-1.37-.07-2.6-.45-3.71-1.13-1.02-.63-1.88-1.55-2.61-2.76-.72-1.22-1.05-2.5-.98-3.86.07-1.37.45-2.6,1.13-3.71.63-1.02,1.55-1.88,2.76-2.61l-.02.03Z"/>
    </g>
    <g id="_Ripetizione_radiale_-64">
      <path class="st0" d="M352.63,221.54c1.27-.62,2.61-.82,4-.6,1.4.22,2.58.68,3.53,1.4,1.05.78,1.86,1.78,2.43,3.01.57,1.23.75,2.55.53,3.95-.22,1.4-.68,2.56-1.4,3.53-.78,1.05-1.78,1.86-3.03,2.43-1.23.57-2.53.77-3.88.58s-2.55-.67-3.6-1.45c-.97-.72-1.75-1.7-2.36-2.96s-.83-2.58-.65-3.93.67-2.55,1.45-3.6c.72-.97,1.7-1.75,2.96-2.36h.02Z"/>
    </g>
    <g id="_Ripetizione_radiale_-65">
      <path class="st0" d="M346.19,229.98c1.32-.5,2.66-.6,4.05-.25,1.38.33,2.5.9,3.4,1.68.98.87,1.71,1.93,2.16,3.21.47,1.28.53,2.61.2,3.98-.33,1.37-.9,2.5-1.68,3.4-.87.98-1.95,1.71-3.21,2.16-1.28.47-2.58.55-3.91.25-1.33-.3-2.48-.88-3.46-1.75-.9-.78-1.6-1.85-2.1-3.16-.5-1.32-.62-2.65-.32-3.96.3-1.33.88-2.48,1.75-3.46.78-.9,1.83-1.6,3.16-2.1h-.03Z"/>
    </g>
    <g id="_Ripetizione_radiale_-66">
      <path class="st0" d="M339.05,237.84c1.35-.4,2.71-.37,4.05.08,1.35.45,2.41,1.1,3.25,1.96.9.95,1.53,2.08,1.9,3.4.35,1.32.3,2.65-.15,3.98-.45,1.33-1.1,2.41-1.96,3.25-.95.9-2.08,1.53-3.4,1.88s-2.63.32-3.93-.08-2.4-1.08-3.31-2.03c-.83-.87-1.43-1.96-1.83-3.33-.4-1.35-.38-2.68.02-3.98.4-1.3,1.08-2.4,2.03-3.31.87-.83,1.96-1.43,3.33-1.83l.02.02Z"/>
    </g>
    <g id="_Ripetizione_radiale_-67">
      <path class="st0" d="M331.27,245.06c1.38-.28,2.73-.13,4.03.43s2.31,1.3,3.06,2.23c.82,1.02,1.37,2.2,1.6,3.53.23,1.33.08,2.66-.48,3.95-.57,1.3-1.32,2.31-2.23,3.06-1.02.82-2.2,1.35-3.55,1.6-1.33.23-2.65.1-3.9-.42s-2.3-1.28-3.13-2.3c-.75-.93-1.27-2.08-1.55-3.46s-.15-2.71.37-3.96c.52-1.27,1.28-2.3,2.3-3.11.93-.75,2.08-1.27,3.46-1.53l.02-.02Z"/>
    </g>
    <g id="_Ripetizione_radiale_-68">
      <path class="st0" d="M322.91,251.61c1.4-.17,2.73.1,3.98.77,1.25.67,2.2,1.5,2.86,2.48.73,1.08,1.17,2.3,1.28,3.66.13,1.35-.15,2.65-.82,3.9-.67,1.25-1.5,2.2-2.5,2.86-1.08.73-2.31,1.17-3.66,1.28s-2.65-.13-3.85-.75c-1.22-.62-2.18-1.48-2.91-2.56-.67-.98-1.08-2.18-1.25-3.58-.15-1.4.07-2.71.7-3.93.62-1.22,1.48-2.18,2.56-2.91.98-.67,2.18-1.08,3.6-1.23v.02Z"/>
    </g>
    <g id="_Ripetizione_radiale_-69">
      <path class="st0" d="M314.02,257.43c1.42-.03,2.71.33,3.9,1.1,1.18.77,2.06,1.68,2.65,2.71.63,1.15.97,2.4.98,3.76,0,1.37-.37,2.63-1.15,3.81-.78,1.18-1.68,2.06-2.73,2.65-1.15.63-2.4.97-3.76.97s-2.61-.35-3.78-1.07c-1.15-.72-2.05-1.65-2.68-2.8-.58-1.05-.88-2.26-.93-3.68-.03-1.42.3-2.7,1.03-3.85.72-1.15,1.65-2.05,2.8-2.68,1.05-.58,2.26-.9,3.68-.93h0Z"/>
    </g>
    <g id="_Ripetizione_radiale_-70">
      <path class="st0" d="M304.68,262.46c1.42.08,2.68.55,3.78,1.43,1.12.87,1.91,1.85,2.4,2.93.53,1.2.77,2.46.65,3.83-.1,1.35-.6,2.6-1.47,3.7-.87,1.12-1.85,1.91-2.93,2.4-1.2.53-2.46.75-3.83.65-1.35-.1-2.58-.57-3.66-1.38s-1.9-1.81-2.45-3.01c-.5-1.08-.7-2.33-.62-3.75s.53-2.66,1.35-3.75c.82-1.08,1.83-1.9,3.01-2.45,1.08-.5,2.33-.7,3.75-.62l.02.02Z"/>
    </g>
    <g id="_Ripetizione_radiale_-71">
      <path class="st0" d="M294.94,266.69c1.4.2,2.61.78,3.65,1.75s1.75,2,2.15,3.13c.43,1.23.55,2.53.33,3.86s-.82,2.53-1.78,3.56-2,1.75-3.13,2.15c-1.23.43-2.53.55-3.86.33-1.35-.22-2.53-.78-3.55-1.7-1.02-.9-1.75-1.98-2.18-3.21-.4-1.13-.5-2.38-.3-3.78.2-1.4.75-2.61,1.66-3.61.9-1.02,1.98-1.73,3.21-2.18,1.13-.4,2.38-.5,3.78-.3h.02Z"/>
    </g>
    <g id="_Ripetizione_radiale_-72">
      <path class="st0" d="M284.87,270.09c1.38.32,2.55,1,3.5,2.05.95,1.05,1.58,2.15,1.88,3.3.33,1.27.33,2.56,0,3.88-.33,1.32-1.03,2.45-2.06,3.4-1.05.95-2.15,1.56-3.3,1.88-1.27.33-2.56.33-3.88,0-1.32-.33-2.45-1-3.38-1.98s-1.56-2.11-1.9-3.38c-.3-1.15-.28-2.41.03-3.8s.98-2.53,1.96-3.46,2.11-1.56,3.38-1.9c1.15-.3,2.41-.3,3.8.03l-.03-.02Z"/>
    </g>
    <g id="_Ripetizione_radiale_-73">
      <path class="st0" d="M274.55,272.6c1.35.43,2.45,1.22,3.3,2.33.87,1.13,1.38,2.26,1.58,3.45.22,1.3.12,2.58-.33,3.86s-1.23,2.36-2.35,3.21c-1.13.85-2.26,1.38-3.45,1.58-1.3.22-2.58.12-3.86-.33s-2.35-1.2-3.2-2.26c-.85-1.07-1.38-2.25-1.6-3.53-.2-1.18-.08-2.43.35-3.78s1.18-2.45,2.25-3.28c1.07-.85,2.25-1.38,3.53-1.6,1.18-.2,2.43-.08,3.78.35h0Z"/>
    </g>
    <g id="_Ripetizione_radiale_-74">
      <path class="st0" d="M264.06,274.25c1.3.55,2.33,1.42,3.1,2.61s1.18,2.38,1.28,3.56c.12,1.3-.1,2.58-.67,3.83-.55,1.25-1.43,2.25-2.61,3-1.2.75-2.38,1.18-3.58,1.28-1.3.12-2.58-.12-3.83-.67-1.25-.55-2.25-1.4-3-2.53-.75-1.13-1.18-2.35-1.3-3.66-.1-1.18.12-2.43.67-3.73s1.38-2.33,2.51-3.08c1.13-.75,2.35-1.18,3.66-1.3,1.2-.1,2.43.12,3.75.67l.02.02Z"/>
    </g>
  </g>
  <g>
    <g>
      <path class="st0" d="M176.54,93.28c-1.07-.57-1.9-1.38-2.45-2.45-.57-1.08-.85-2.11-.85-3.15,0-1.12.28-2.2.85-3.21.57-1.02,1.38-1.81,2.45-2.38,1.08-.57,2.11-.85,3.15-.85,1.13,0,2.2.28,3.23.85,1.02.57,1.81,1.35,2.38,2.38.57,1.02.85,2.1.85,3.21,0,1.03-.28,2.06-.85,3.15-.57,1.07-1.37,1.9-2.38,2.45-1.02.57-2.1.85-3.23.85-1.03,0-2.06-.28-3.15-.85ZM176.54,185.28c-1.07-.57-1.9-1.38-2.45-2.45-.57-1.08-.85-2.13-.85-3.15,0-1.13.28-2.2.85-3.21.57-1.03,1.38-1.81,2.45-2.38,1.08-.57,2.11-.85,3.15-.85,1.13,0,2.2.28,3.23.85,1.02.57,1.81,1.35,2.38,2.38.57,1.02.85,2.1.85,3.21,0,1.02-.28,2.06-.85,3.15-.57,1.07-1.37,1.9-2.38,2.45-1.02.57-2.1.85-3.23.85-1.03,0-2.06-.28-3.15-.85ZM184.21,93.28c-1.07-.57-1.9-1.38-2.45-2.45-.57-1.08-.85-2.11-.85-3.15,0-1.12.28-2.2.85-3.21.57-1.02,1.38-1.81,2.45-2.38,1.08-.57,2.11-.85,3.15-.85,1.13,0,2.2.28,3.23.85,1.02.57,1.81,1.35,2.38,2.38.57,1.02.85,2.1.85,3.21,0,1.03-.28,2.06-.85,3.15-.57,1.07-1.37,1.9-2.38,2.45-1.02.57-2.1.85-3.23.85-1.03,0-2.06-.28-3.15-.85ZM184.21,185.28c-1.07-.57-1.9-1.38-2.45-2.45-.57-1.08-.85-2.13-.85-3.15,0-1.13.28-2.2.85-3.21.57-1.03,1.38-1.81,2.45-2.38,1.08-.57,2.11-.85,3.15-.85,1.13,0,2.2.28,3.23.85,1.02.57,1.81,1.35,2.38,2.38.57,1.02.85,2.1.85,3.21,0,1.02-.28,2.06-.85,3.15-.57,1.07-1.37,1.9-2.38,2.45-1.02.57-2.1.85-3.23.85-1.03,0-2.06-.28-3.15-.85ZM188.04,100.94c-1.07-.57-1.9-1.38-2.45-2.45-.57-1.08-.85-2.11-.85-3.15,0-1.12.28-2.2.85-3.21.57-1.02,1.38-1.81,2.45-2.38,1.08-.57,2.11-.85,3.15-.85,1.13,0,2.2.28,3.23.85,1.02.57,1.81,1.35,2.38,2.38.57,1.02.85,2.1.85,3.21,0,1.03-.28,2.06-.85,3.15-.57,1.07-1.37,1.9-2.38,2.45-1.02.57-2.1.85-3.23.85-1.03,0-2.06-.28-3.15-.85ZM188.04,108.61c-1.07-.57-1.9-1.38-2.45-2.45-.57-1.08-.85-2.11-.85-3.15,0-1.12.28-2.2.85-3.21.57-1.02,1.38-1.81,2.45-2.38,1.08-.57,2.11-.85,3.15-.85,1.13,0,2.2.28,3.23.85,1.02.57,1.81,1.35,2.38,2.38.57,1.02.85,2.1.85,3.21,0,1.03-.28,2.06-.85,3.15-.57,1.07-1.37,1.9-2.38,2.45-1.02.57-2.1.85-3.23.85-1.03,0-2.06-.28-3.15-.85ZM188.04,116.27c-1.07-.57-1.9-1.38-2.45-2.45-.57-1.08-.85-2.11-.85-3.15,0-1.12.28-2.2.85-3.21.57-1.02,1.38-1.81,2.45-2.38,1.08-.57,2.11-.85,3.15-.85,1.13,0,2.2.28,3.23.85,1.02.57,1.81,1.35,2.38,2.38.57,1.02.85,2.1.85,3.21,0,1.03-.28,2.06-.85,3.15-.57,1.07-1.37,1.9-2.38,2.45-1.02.57-2.1.85-3.23.85-1.03,0-2.06-.28-3.15-.85ZM188.04,123.94c-1.07-.57-1.9-1.38-2.45-2.45-.57-1.08-.85-2.11-.85-3.15,0-1.12.28-2.2.85-3.21.57-1.02,1.38-1.81,2.45-2.38,1.08-.57,2.11-.85,3.15-.85,1.13,0,2.2.28,3.23.85,1.02.57,1.81,1.35,2.38,2.38.57,1.02.85,2.1.85,3.21,0,1.03-.28,2.06-.85,3.15-.57,1.07-1.37,1.9-2.38,2.45-1.02.57-2.1.85-3.23.85-1.03,0-2.06-.28-3.15-.85ZM188.04,131.6c-1.07-.57-1.9-1.38-2.45-2.45-.57-1.08-.85-2.11-.85-3.15,0-1.12.28-2.2.85-3.21.57-1.02,1.38-1.81,2.45-2.38,1.08-.57,2.11-.85,3.15-.85,1.13,0,2.2.28,3.23.85,1.02.57,1.81,1.35,2.38,2.38.57,1.02.85,2.1.85,3.21,0,1.03-.28,2.06-.85,3.15-.57,1.07-1.37,1.9-2.38,2.45-1.02.57-2.1.85-3.23.85-1.03,0-2.06-.28-3.15-.85ZM188.04,139.28c-1.07-.57-1.9-1.38-2.45-2.45-.57-1.08-.85-2.11-.85-3.15,0-1.12.28-2.2.85-3.21.57-1.02,1.38-1.81,2.45-2.38,1.08-.57,2.11-.85,3.15-.85,1.13,0,2.2.28,3.23.85,1.02.57,1.81,1.35,2.38,2.38.57,1.02.85,2.1.85,3.21,0,1.03-.28,2.06-.85,3.15-.57,1.07-1.37,1.9-2.38,2.45-1.02.57-2.1.85-3.23.85-1.03,0-2.06-.28-3.15-.85ZM188.04,146.94c-1.07-.57-1.9-1.38-2.45-2.45-.57-1.08-.85-2.11-.85-3.15,0-1.12.28-2.2.85-3.21.57-1.02,1.38-1.81,2.45-2.38,1.08-.57,2.11-.85,3.15-.85,1.13,0,2.2.28,3.23.85,1.02.57,1.81,1.35,2.38,2.38.57,1.02.85,2.1.85,3.21,0,1.03-.28,2.06-.85,3.15-.57,1.07-1.37,1.9-2.38,2.45-1.02.57-2.1.85-3.23.85-1.03,0-2.06-.28-3.15-.85ZM188.04,154.61c-1.07-.57-1.9-1.38-2.45-2.45-.57-1.08-.85-2.11-.85-3.15,0-1.12.28-2.2.85-3.21.57-1.02,1.38-1.81,2.45-2.38,1.08-.57,2.11-.85,3.15-.85,1.13,0,2.2.28,3.23.85,1.02.57,1.81,1.35,2.38,2.38.57,1.02.85,2.1.85,3.21,0,1.03-.28,2.06-.85,3.15-.57,1.07-1.37,1.9-2.38,2.45-1.02.57-2.1.85-3.23.85-1.03,0-2.06-.28-3.15-.85ZM188.04,162.27c-1.07-.57-1.9-1.38-2.45-2.45-.57-1.08-.85-2.13-.85-3.15,0-1.12.28-2.2.85-3.21.57-1.02,1.38-1.81,2.45-2.38,1.08-.57,2.11-.85,3.15-.85,1.13,0,2.2.28,3.23.85,1.02.57,1.81,1.35,2.38,2.38.57,1.02.85,2.1.85,3.21,0,1.02-.28,2.06-.85,3.15-.57,1.07-1.37,1.9-2.38,2.45-1.02.57-2.1.85-3.23.85-1.03,0-2.06-.28-3.15-.85ZM188.04,169.95c-1.07-.57-1.9-1.38-2.45-2.45-.57-1.08-.85-2.13-.85-3.15,0-1.13.28-2.2.85-3.21.57-1.03,1.38-1.81,2.45-2.38,1.08-.57,2.11-.85,3.15-.85,1.13,0,2.2.28,3.23.85,1.02.57,1.81,1.35,2.38,2.38.57,1.02.85,2.1.85,3.21,0,1.02-.28,2.06-.85,3.15-.57,1.07-1.37,1.9-2.38,2.45-1.02.57-2.1.85-3.23.85-1.03,0-2.06-.28-3.15-.85ZM188.04,177.6c-1.07-.57-1.9-1.38-2.45-2.45-.57-1.08-.85-2.13-.85-3.15,0-1.13.28-2.2.85-3.21.57-1.03,1.38-1.81,2.45-2.38,1.08-.57,2.11-.85,3.15-.85,1.13,0,2.2.28,3.23.85,1.02.57,1.81,1.35,2.38,2.38.57,1.02.85,2.1.85,3.21,0,1.02-.28,2.06-.85,3.15-.57,1.07-1.37,1.9-2.38,2.45-1.02.57-2.1.85-3.23.85-1.03,0-2.06-.28-3.15-.85ZM191.89,100.94c-1.07-.57-1.9-1.38-2.45-2.45-.57-1.08-.85-2.11-.85-3.15,0-1.12.28-2.2.85-3.21.57-1.02,1.38-1.81,2.45-2.38,1.08-.57,2.11-.85,3.15-.85,1.13,0,2.2.28,3.23.85,1.02.57,1.81,1.35,2.38,2.38.57,1.02.85,2.1.85,3.21,0,1.03-.28,2.06-.85,3.15-.57,1.07-1.37,1.9-2.38,2.45-1.02.57-2.1.85-3.23.85-1.03,0-2.06-.28-3.15-.85ZM191.89,185.28c-1.07-.57-1.9-1.38-2.45-2.45-.57-1.08-.85-2.13-.85-3.15,0-1.13.28-2.2.85-3.21.57-1.03,1.38-1.81,2.45-2.38,1.08-.57,2.11-.85,3.15-.85,1.13,0,2.2.28,3.23.85,1.02.57,1.81,1.35,2.38,2.38.57,1.02.85,2.1.85,3.21,0,1.02-.28,2.06-.85,3.15-.57,1.07-1.37,1.9-2.38,2.45-1.02.57-2.1.85-3.23.85-1.03,0-2.06-.28-3.15-.85ZM195.72,150.78c-1.07-.57-1.9-1.38-2.45-2.45-.57-1.08-.85-2.11-.85-3.15,0-1.12.28-2.2.85-3.21.57-1.02,1.38-1.81,2.45-2.38,1.08-.57,2.11-.85,3.15-.85,1.13,0,2.2.28,3.23.85,1.02.57,1.81,1.35,2.38,2.38.57,1.02.85,2.1.85,3.21,0,1.03-.28,2.06-.85,3.15-.57,1.07-1.37,1.9-2.38,2.45-1.02.57-2.1.85-3.23.85-1.03,0-2.06-.28-3.15-.85ZM199.55,97.11c-1.07-.57-1.9-1.38-2.45-2.45-.57-1.08-.85-2.11-.85-3.15,0-1.12.28-2.2.85-3.21.57-1.02,1.38-1.81,2.45-2.38,1.08-.57,2.11-.85,3.15-.85,1.13,0,2.2.28,3.23.85,1.02.57,1.81,1.35,2.38,2.38.57,1.02.85,2.1.85,3.21,0,1.03-.28,2.06-.85,3.15-.57,1.07-1.37,1.9-2.38,2.45-1.02.57-2.1.85-3.23.85-1.03,0-2.06-.28-3.15-.85ZM199.55,185.28c-1.07-.57-1.9-1.38-2.45-2.45-.57-1.08-.85-2.13-.85-3.15,0-1.13.28-2.2.85-3.21.57-1.03,1.38-1.81,2.45-2.38,1.08-.57,2.11-.85,3.15-.85,1.13,0,2.2.28,3.23.85,1.02.57,1.81,1.35,2.38,2.38.57,1.02.85,2.1.85,3.21,0,1.02-.28,2.06-.85,3.15-.57,1.07-1.37,1.9-2.38,2.45-1.02.57-2.1.85-3.23.85-1.03,0-2.06-.28-3.15-.85ZM203.39,154.61c-1.07-.57-1.9-1.38-2.45-2.45-.57-1.08-.85-2.11-.85-3.15,0-1.12.28-2.2.85-3.21.57-1.02,1.38-1.81,2.45-2.38,1.08-.57,2.11-.85,3.15-.85,1.13,0,2.2.28,3.23.85,1.02.57,1.81,1.35,2.38,2.38.57,1.02.85,2.1.85,3.21,0,1.03-.28,2.06-.85,3.15-.57,1.07-1.37,1.9-2.38,2.45-1.02.57-2.1.85-3.23.85-1.03,0-2.06-.28-3.15-.85ZM207.22,93.28c-1.07-.57-1.9-1.38-2.45-2.45-.57-1.08-.85-2.11-.85-3.15,0-1.12.28-2.2.85-3.21.57-1.02,1.38-1.81,2.45-2.38,1.08-.57,2.11-.85,3.15-.85,1.13,0,2.2.28,3.23.85,1.02.57,1.81,1.35,2.38,2.38.57,1.02.85,2.1.85,3.21,0,1.03-.28,2.06-.85,3.15-.57,1.07-1.37,1.9-2.38,2.45-1.02.57-2.1.85-3.23.85-1.03,0-2.06-.28-3.15-.85ZM211.07,154.61c-1.07-.57-1.9-1.38-2.45-2.45-.57-1.08-.85-2.11-.85-3.15,0-1.12.28-2.2.85-3.21.57-1.02,1.38-1.81,2.45-2.38,1.08-.57,2.11-.85,3.15-.85,1.13,0,2.2.28,3.23.85,1.02.57,1.81,1.35,2.38,2.38.57,1.02.85,2.1.85,3.21,0,1.03-.28,2.06-.85,3.15-.57,1.07-1.37,1.9-2.38,2.45-1.02.57-2.1.85-3.23.85-1.03,0-2.06-.28-3.15-.85ZM214.9,93.28c-1.07-.57-1.9-1.38-2.45-2.45-.57-1.08-.85-2.11-.85-3.15,0-1.12.28-2.2.85-3.21.57-1.02,1.38-1.81,2.45-2.38,1.08-.57,2.11-.85,3.15-.85,1.13,0,2.2.28,3.23.85,1.02.57,1.81,1.35,2.38,2.38.57,1.02.85,2.1.85,3.21,0,1.03-.28,2.06-.85,3.15-.57,1.07-1.37,1.9-2.38,2.45-1.02.57-2.1.85-3.23.85-1.03,0-2.06-.28-3.15-.85ZM218.74,154.61c-1.07-.57-1.9-1.38-2.45-2.45-.57-1.08-.85-2.11-.85-3.15,0-1.12.28-2.2.85-3.21.57-1.02,1.38-1.81,2.45-2.38,1.08-.57,2.11-.85,3.15-.85,1.13,0,2.2.28,3.23.85,1.02.57,1.81,1.35,2.38,2.38.57,1.02.85,2.1.85,3.21,0,1.03-.28,2.06-.85,3.15-.57,1.07-1.37,1.9-2.38,2.45-1.02.57-2.1.85-3.23.85-1.03,0-2.06-.28-3.15-.85ZM222.57,97.11c-1.07-.57-1.9-1.38-2.45-2.45-.57-1.08-.85-2.11-.85-3.15,0-1.12.28-2.2.85-3.21.57-1.02,1.38-1.81,2.45-2.38,1.08-.57,2.11-.85,3.15-.85,1.13,0,2.2.28,3.23.85,1.02.57,1.81,1.35,2.38,2.38.57,1.02.85,2.1.85,3.21,0,1.03-.28,2.06-.85,3.15-.57,1.07-1.37,1.9-2.38,2.45-1.02.57-2.1.85-3.23.85-1.03,0-2.06-.28-3.15-.85ZM226.4,150.78c-1.07-.57-1.9-1.38-2.45-2.45-.57-1.08-.85-2.11-.85-3.15,0-1.12.28-2.2.85-3.21.57-1.02,1.38-1.81,2.45-2.38,1.08-.57,2.11-.85,3.15-.85,1.13,0,2.2.28,3.23.85,1.02.57,1.81,1.35,2.38,2.38.57,1.02.85,2.1.85,3.21,0,1.03-.28,2.06-.85,3.15-.57,1.07-1.37,1.9-2.38,2.45-1.02.57-2.1.85-3.23.85-1.03,0-2.06-.28-3.15-.85ZM230.25,100.94c-1.07-.57-1.9-1.38-2.45-2.45-.57-1.08-.85-2.11-.85-3.15,0-1.12.28-2.2.85-3.21.57-1.02,1.38-1.81,2.45-2.38,1.08-.57,2.11-.85,3.15-.85,1.13,0,2.2.28,3.23.85,1.02.57,1.81,1.35,2.38,2.38.57,1.02.85,2.1.85,3.21,0,1.03-.28,2.06-.85,3.15-.57,1.07-1.37,1.9-2.38,2.45-1.02.57-2.1.85-3.23.85-1.03,0-2.06-.28-3.15-.85ZM230.25,146.94c-1.07-.57-1.9-1.38-2.45-2.45-.57-1.08-.85-2.11-.85-3.15,0-1.12.28-2.2.85-3.21.57-1.02,1.38-1.81,2.45-2.38,1.08-.57,2.11-.85,3.15-.85,1.13,0,2.2.28,3.23.85,1.02.57,1.81,1.35,2.38,2.38.57,1.02.85,2.1.85,3.21,0,1.03-.28,2.06-.85,3.15-.57,1.07-1.37,1.9-2.38,2.45-1.02.57-2.1.85-3.23.85-1.03,0-2.06-.28-3.15-.85ZM234.08,108.61c-1.07-.57-1.9-1.38-2.45-2.45-.57-1.08-.85-2.11-.85-3.15,0-1.12.28-2.2.85-3.21.57-1.02,1.38-1.81,2.45-2.38,1.08-.57,2.11-.85,3.15-.85,1.13,0,2.2.28,3.23.85,1.02.57,1.81,1.35,2.38,2.38.57,1.02.85,2.1.85,3.21,0,1.03-.28,2.06-.85,3.15-.57,1.07-1.37,1.9-2.38,2.45-1.02.57-2.1.85-3.23.85-1.03,0-2.06-.28-3.15-.85ZM234.08,139.28c-1.07-.57-1.9-1.38-2.45-2.45-.57-1.08-.85-2.11-.85-3.15,0-1.12.28-2.2.85-3.21.57-1.02,1.38-1.81,2.45-2.38,1.08-.57,2.11-.85,3.15-.85,1.13,0,2.2.28,3.23.85,1.02.57,1.81,1.35,2.38,2.38.57,1.02.85,2.1.85,3.21,0,1.03-.28,2.06-.85,3.15-.57,1.07-1.37,1.9-2.38,2.45-1.02.57-2.1.85-3.23.85-1.03,0-2.06-.28-3.15-.85ZM237.92,116.27c-1.07-.57-1.9-1.38-2.45-2.45-.57-1.08-.85-2.11-.85-3.15,0-1.12.28-2.2.85-3.21.57-1.02,1.38-1.81,2.45-2.38,1.08-.57,2.11-.85,3.15-.85,1.13,0,2.2.28,3.23.85,1.02.57,1.81,1.35,2.38,2.38.57,1.02.85,2.1.85,3.21,0,1.03-.28,2.06-.85,3.15-.57,1.07-1.37,1.9-2.38,2.45-1.02.57-2.1.85-3.23.85-1.03,0-2.06-.28-3.15-.85ZM237.92,123.94c-1.07-.57-1.9-1.38-2.45-2.45-.57-1.08-.85-2.11-.85-3.15,0-1.12.28-2.2.85-3.21.57-1.02,1.38-1.81,2.45-2.38,1.08-.57,2.11-.85,3.15-.85,1.13,0,2.2.28,3.23.85,1.02.57,1.81,1.35,2.38,2.38.57,1.02.85,2.1.85,3.21,0,1.03-.28,2.06-.85,3.15-.57,1.07-1.37,1.9-2.38,2.45-1.02.57-2.1.85-3.23.85-1.03,0-2.06-.28-3.15-.85ZM237.92,131.6c-1.07-.57-1.9-1.38-2.45-2.45-.57-1.08-.85-2.11-.85-3.15,0-1.12.28-2.2.85-3.21.57-1.02,1.38-1.81,2.45-2.38,1.08-.57,2.11-.85,3.15-.85,1.13,0,2.2.28,3.23.85,1.02.57,1.81,1.35,2.38,2.38.57,1.02.85,2.1.85,3.21,0,1.03-.28,2.06-.85,3.15-.57,1.07-1.37,1.9-2.38,2.45-1.02.57-2.1.85-3.23.85-1.03,0-2.06-.28-3.15-.85Z"/>
      <path class="st0" d="M212.28,123.94c-1.07-.57-1.9-1.38-2.45-2.45-.57-1.08-.85-2.11-.85-3.15,0-1.12.28-2.2.85-3.21.57-1.02,1.38-1.81,2.45-2.38,1.08-.57,2.11-.85,3.15-.85,1.13,0,2.2.28,3.23.85,1.02.57,1.81,1.35,2.38,2.38.57,1.02.85,2.1.85,3.21,0,1.03-.28,2.06-.85,3.15-.57,1.07-1.37,1.9-2.38,2.45-1.02.57-2.1.85-3.23.85-1.03,0-2.06-.28-3.15-.85Z"/>
    </g>
    <g>
      <path class="st0" d="M260.81,116.27c-1.07-.57-1.9-1.38-2.45-2.45-.57-1.08-.85-2.11-.85-3.15,0-1.12.28-2.2.85-3.21.57-1.02,1.38-1.81,2.45-2.38,1.08-.57,2.11-.85,3.15-.85,1.13,0,2.2.28,3.23.85,1.02.57,1.81,1.35,2.38,2.38.57,1.02.85,2.1.85,3.21,0,1.03-.28,2.06-.85,3.15-.57,1.07-1.37,1.9-2.38,2.45-1.02.57-2.1.85-3.23.85-1.03,0-2.06-.28-3.15-.85ZM260.81,123.94c-1.07-.57-1.9-1.38-2.45-2.45-.57-1.08-.85-2.11-.85-3.15,0-1.12.28-2.2.85-3.21.57-1.02,1.38-1.81,2.45-2.38,1.08-.57,2.11-.85,3.15-.85,1.13,0,2.2.28,3.23.85,1.02.57,1.81,1.35,2.38,2.38.57,1.02.85,2.1.85,3.21,0,1.03-.28,2.06-.85,3.15-.57,1.07-1.37,1.9-2.38,2.45-1.02.57-2.1.85-3.23.85-1.03,0-2.06-.28-3.15-.85ZM260.81,131.6c-1.07-.57-1.9-1.38-2.45-2.45-.57-1.08-.85-2.11-.85-3.15,0-1.12.28-2.2.85-3.21.57-1.02,1.38-1.81,2.45-2.38,1.08-.57,2.11-.85,3.15-.85,1.13,0,2.2.28,3.23.85,1.02.57,1.81,1.35,2.38,2.38.57,1.02.85,2.1.85,3.21,0,1.03-.28,2.06-.85,3.15-.57,1.07-1.37,1.9-2.38,2.45-1.02.57-2.1.85-3.23.85-1.03,0-2.06-.28-3.15-.85ZM264.64,108.61c-1.07-.57-1.9-1.38-2.45-2.45-.57-1.08-.85-2.11-.85-3.15,0-1.12.28-2.2.85-3.21.57-1.02,1.38-1.81,2.45-2.38,1.08-.57,2.11-.85,3.15-.85,1.13,0,2.2.28,3.23.85,1.02.57,1.81,1.35,2.38,2.38.57,1.02.85,2.1.85,3.21,0,1.03-.28,2.06-.85,3.15-.57,1.07-1.37,1.9-2.38,2.45-1.02.57-2.1.85-3.23.85-1.03,0-2.06-.28-3.15-.85ZM264.64,139.28c-1.07-.57-1.9-1.38-2.45-2.45-.57-1.08-.85-2.11-.85-3.15,0-1.12.28-2.2.85-3.21.57-1.02,1.38-1.81,2.45-2.38,1.08-.57,2.11-.85,3.15-.85,1.13,0,2.2.28,3.23.85,1.02.57,1.81,1.35,2.38,2.38.57,1.02.85,2.1.85,3.21,0,1.03-.28,2.06-.85,3.15-.57,1.07-1.37,1.9-2.38,2.45-1.02.57-2.1.85-3.23.85-1.03,0-2.06-.28-3.15-.85ZM268.47,100.94c-1.07-.57-1.9-1.38-2.45-2.45-.57-1.08-.85-2.11-.85-3.15,0-1.12.28-2.2.85-3.21.57-1.02,1.38-1.81,2.45-2.38,1.08-.57,2.11-.85,3.15-.85,1.13,0,2.2.28,3.23.85,1.02.57,1.81,1.35,2.38,2.38.57,1.02.85,2.1.85,3.21,0,1.03-.28,2.06-.85,3.15-.57,1.07-1.37,1.9-2.38,2.45-1.02.57-2.1.85-3.23.85-1.03,0-2.06-.28-3.15-.85ZM268.47,146.94c-1.07-.57-1.9-1.38-2.45-2.45-.57-1.08-.85-2.11-.85-3.15,0-1.12.28-2.2.85-3.21.57-1.02,1.38-1.81,2.45-2.38,1.08-.57,2.11-.85,3.15-.85,1.13,0,2.2.28,3.23.85,1.02.57,1.81,1.35,2.38,2.38.57,1.02.85,2.1.85,3.21,0,1.03-.28,2.06-.85,3.15-.57,1.07-1.37,1.9-2.38,2.45-1.02.57-2.1.85-3.23.85-1.03,0-2.06-.28-3.15-.85ZM272.32,97.11c-1.07-.57-1.9-1.38-2.45-2.45-.57-1.08-.85-2.11-.85-3.15,0-1.12.28-2.2.85-3.21.57-1.02,1.38-1.81,2.45-2.38,1.08-.57,2.11-.85,3.15-.85,1.13,0,2.2.28,3.23.85,1.02.57,1.81,1.35,2.38,2.38.57,1.02.85,2.1.85,3.21,0,1.03-.28,2.06-.85,3.15-.57,1.07-1.37,1.9-2.38,2.45-1.02.57-2.1.85-3.23.85-1.03,0-2.06-.28-3.15-.85ZM272.32,150.78c-1.07-.57-1.9-1.38-2.45-2.45-.57-1.08-.85-2.11-.85-3.15,0-1.12.28-2.2.85-3.21.57-1.02,1.38-1.81,2.45-2.38,1.08-.57,2.11-.85,3.15-.85,1.13,0,2.2.28,3.23.85,1.02.57,1.81,1.35,2.38,2.38.57,1.02.85,2.1.85,3.21,0,1.03-.28,2.06-.85,3.15-.57,1.07-1.37,1.9-2.38,2.45-1.02.57-2.1.85-3.23.85-1.03,0-2.06-.28-3.15-.85ZM279.99,93.28c-1.07-.57-1.9-1.38-2.45-2.45-.57-1.08-.85-2.11-.85-3.15,0-1.12.28-2.2.85-3.21s1.38-1.81,2.45-2.38c1.08-.57,2.11-.85,3.15-.85,1.13,0,2.2.28,3.23.85,1.02.57,1.81,1.35,2.38,2.38.57,1.02.85,2.1.85,3.21,0,1.03-.28,2.06-.85,3.15-.57,1.07-1.37,1.9-2.38,2.45-1.02.57-2.1.85-3.23.85-1.03,0-2.06-.28-3.15-.85ZM279.99,154.61c-1.07-.57-1.9-1.38-2.45-2.45-.57-1.08-.85-2.11-.85-3.15,0-1.12.28-2.2.85-3.21.57-1.02,1.38-1.81,2.45-2.38,1.08-.57,2.11-.85,3.15-.85,1.13,0,2.2.28,3.23.85,1.02.57,1.81,1.35,2.38,2.38.57,1.02.85,2.1.85,3.21,0,1.03-.28,2.06-.85,3.15-.57,1.07-1.37,1.9-2.38,2.45-1.02.57-2.1.85-3.23.85-1.03,0-2.06-.28-3.15-.85ZM287.65,93.28c-1.07-.57-1.9-1.38-2.45-2.45-.57-1.08-.85-2.11-.85-3.15,0-1.12.28-2.2.85-3.21s1.38-1.81,2.45-2.38c1.08-.57,2.11-.85,3.15-.85,1.13,0,2.2.28,3.23.85,1.02.57,1.81,1.35,2.38,2.38.57,1.02.85,2.1.85,3.21,0,1.03-.28,2.06-.85,3.15-.57,1.07-1.37,1.9-2.38,2.45-1.02.57-2.1.85-3.23.85-1.03,0-2.06-.28-3.15-.85ZM287.65,154.61c-1.07-.57-1.9-1.38-2.45-2.45-.57-1.08-.85-2.11-.85-3.15,0-1.12.28-2.2.85-3.21.57-1.02,1.38-1.81,2.45-2.38,1.08-.57,2.11-.85,3.15-.85,1.13,0,2.2.28,3.23.85,1.02.57,1.81,1.35,2.38,2.38.57,1.02.85,2.1.85,3.21,0,1.03-.28,2.06-.85,3.15-.57,1.07-1.37,1.9-2.38,2.45-1.02.57-2.1.85-3.23.85-1.03,0-2.06-.28-3.15-.85ZM295.33,93.28c-1.07-.57-1.9-1.38-2.45-2.45-.57-1.08-.85-2.11-.85-3.15,0-1.12.28-2.2.85-3.21s1.38-1.81,2.45-2.38c1.08-.57,2.11-.85,3.15-.85,1.13,0,2.2.28,3.23.85,1.02.57,1.81,1.35,2.38,2.38.57,1.02.85,2.1.85,3.21,0,1.03-.28,2.06-.85,3.15-.57,1.07-1.37,1.9-2.38,2.45-1.02.57-2.1.85-3.23.85-1.03,0-2.06-.28-3.15-.85ZM295.33,154.61c-1.07-.57-1.9-1.38-2.45-2.45-.57-1.08-.85-2.11-.85-3.15,0-1.12.28-2.2.85-3.21.57-1.02,1.38-1.81,2.45-2.38,1.08-.57,2.11-.85,3.15-.85,1.13,0,2.2.28,3.23.85,1.02.57,1.81,1.35,2.38,2.38.57,1.02.85,2.1.85,3.21,0,1.03-.28,2.06-.85,3.15-.57,1.07-1.37,1.9-2.38,2.45-1.02.57-2.1.85-3.23.85-1.03,0-2.06-.28-3.15-.85ZM303,97.11c-1.07-.57-1.9-1.38-2.45-2.45-.57-1.08-.85-2.11-.85-3.15,0-1.12.28-2.2.85-3.21s1.38-1.81,2.45-2.38c1.08-.57,2.11-.85,3.15-.85,1.13,0,2.2.28,3.23.85,1.02.57,1.81,1.35,2.38,2.38.57,1.02.85,2.1.85,3.21,0,1.03-.28,2.06-.85,3.15-.57,1.07-1.37,1.9-2.38,2.45-1.02.57-2.1.85-3.23.85-1.03,0-2.06-.28-3.15-.85ZM303,150.78c-1.07-.57-1.9-1.38-2.45-2.45-.57-1.08-.85-2.11-.85-3.15,0-1.12.28-2.2.85-3.21.57-1.02,1.38-1.81,2.45-2.38,1.08-.57,2.11-.85,3.15-.85,1.13,0,2.2.28,3.23.85,1.02.57,1.81,1.35,2.38,2.38.57,1.02.85,2.1.85,3.21,0,1.03-.28,2.06-.85,3.15-.57,1.07-1.37,1.9-2.38,2.45-1.02.57-2.1.85-3.23.85-1.03,0-2.06-.28-3.15-.85ZM306.85,100.94c-1.07-.57-1.9-1.38-2.45-2.45-.57-1.08-.85-2.11-.85-3.15,0-1.12.28-2.2.85-3.21s1.38-1.81,2.45-2.38c1.08-.57,2.11-.85,3.15-.85,1.13,0,2.2.28,3.23.85,1.02.57,1.81,1.35,2.38,2.38.57,1.02.85,2.1.85,3.21,0,1.03-.28,2.06-.85,3.15-.57,1.07-1.37,1.9-2.38,2.45-1.02.57-2.1.85-3.23.85-1.03,0-2.06-.28-3.15-.85ZM306.85,146.94c-1.07-.57-1.9-1.38-2.45-2.45-.57-1.08-.85-2.11-.85-3.15,0-1.12.28-2.2.85-3.21.57-1.02,1.38-1.81,2.45-2.38,1.08-.57,2.11-.85,3.15-.85,1.13,0,2.2.28,3.23.85,1.02.57,1.81,1.35,2.38,2.38.57,1.02.85,2.1.85,3.21,0,1.03-.28,2.06-.85,3.15-.57,1.07-1.37,1.9-2.38,2.45-1.02.57-2.1.85-3.23.85-1.03,0-2.06-.28-3.15-.85ZM310.68,108.61c-1.07-.57-1.9-1.38-2.45-2.45-.57-1.08-.85-2.11-.85-3.15,0-1.12.28-2.2.85-3.21s1.38-1.81,2.45-2.38c1.08-.57,2.11-.85,3.15-.85,1.13,0,2.2.28,3.23.85,1.02.57,1.81,1.35,2.38,2.38.57,1.02.85,2.1.85,3.21,0,1.03-.28,2.06-.85,3.15-.57,1.07-1.37,1.9-2.38,2.45-1.02.57-2.1.85-3.23.85-1.03,0-2.06-.28-3.15-.85ZM310.68,139.28c-1.07-.57-1.9-1.38-2.45-2.45-.57-1.08-.85-2.11-.85-3.15,0-1.12.28-2.2.85-3.21.57-1.02,1.38-1.81,2.45-2.38,1.08-.57,2.11-.85,3.15-.85,1.13,0,2.2.28,3.23.85,1.02.57,1.81,1.35,2.38,2.38.57,1.02.85,2.1.85,3.21,0,1.03-.28,2.06-.85,3.15-.57,1.07-1.37,1.9-2.38,2.45-1.02.57-2.1.85-3.23.85-1.03,0-2.06-.28-3.15-.85ZM314.51,116.27c-1.07-.57-1.9-1.38-2.45-2.45-.57-1.08-.85-2.11-.85-3.15,0-1.12.28-2.2.85-3.21s1.38-1.81,2.45-2.38c1.08-.57,2.11-.85,3.15-.85,1.13,0,2.2.28,3.23.85,1.02.57,1.81,1.35,2.38,2.38.57,1.02.85,2.1.85,3.21,0,1.03-.28,2.06-.85,3.15-.57,1.07-1.37,1.9-2.38,2.45-1.02.57-2.1.85-3.23.85-1.03,0-2.06-.28-3.15-.85ZM314.51,123.94c-1.07-.57-1.9-1.38-2.45-2.45-.57-1.08-.85-2.11-.85-3.15,0-1.12.28-2.2.85-3.21.57-1.02,1.38-1.81,2.45-2.38,1.08-.57,2.11-.85,3.15-.85,1.13,0,2.2.28,3.23.85,1.02.57,1.81,1.35,2.38,2.38.57,1.02.85,2.1.85,3.21,0,1.03-.28,2.06-.85,3.15-.57,1.07-1.37,1.9-2.38,2.45-1.02.57-2.1.85-3.23.85-1.03,0-2.06-.28-3.15-.85ZM314.51,131.6c-1.07-.57-1.9-1.38-2.45-2.45-.57-1.08-.85-2.11-.85-3.15,0-1.12.28-2.2.85-3.21.57-1.02,1.38-1.81,2.45-2.38,1.08-.57,2.11-.85,3.15-.85,1.13,0,2.2.28,3.23.85,1.02.57,1.81,1.35,2.38,2.38.57,1.02.85,2.1.85,3.21,0,1.03-.28,2.06-.85,3.15-.57,1.07-1.37,1.9-2.38,2.45-1.02.57-2.1.85-3.23.85-1.03,0-2.06-.28-3.15-.85Z"/>
      <path class="st0" d="M288.88,123.94c-1.07-.57-1.9-1.38-2.45-2.45-.57-1.08-.85-2.11-.85-3.15,0-1.12.28-2.2.85-3.21.57-1.02,1.38-1.81,2.45-2.38,1.08-.57,2.11-.85,3.15-.85,1.13,0,2.2.28,3.23.85,1.02.57,1.81,1.35,2.38,2.38.57,1.02.85,2.1.85,3.21,0,1.03-.28,2.06-.85,3.15-.57,1.07-1.37,1.9-2.38,2.45-1.02.57-2.1.85-3.23.85-1.03,0-2.06-.28-3.15-.85Z"/>
    </g>
    <path class="st0" d="M216.51,177.49c-1.07-.57-1.9-1.38-2.45-2.45-.57-1.08-.85-2.11-.85-3.15,0-1.12.28-2.2.85-3.21.57-1.02,1.38-1.81,2.45-2.38,1.08-.57,2.11-.85,3.15-.85,1.13,0,2.2.28,3.23.85,1.02.57,1.81,1.35,2.38,2.38.57,1.02.85,2.1.85,3.21,0,1.03-.28,2.06-.85,3.15-.57,1.07-1.37,1.9-2.38,2.45-1.02.57-2.1.85-3.23.85-1.03,0-2.06-.28-3.15-.85ZM224.17,177.49c-1.07-.57-1.9-1.38-2.45-2.45-.57-1.08-.85-2.11-.85-3.15,0-1.12.28-2.2.85-3.21.57-1.02,1.38-1.81,2.45-2.38,1.08-.57,2.11-.85,3.15-.85,1.13,0,2.2.28,3.23.85,1.02.57,1.81,1.35,2.38,2.38.57,1.02.85,2.1.85,3.21,0,1.03-.28,2.06-.85,3.15-.57,1.07-1.37,1.9-2.38,2.45-1.02.57-2.1.85-3.23.85-1.03,0-2.06-.28-3.15-.85ZM224.17,185.15c-1.07-.57-1.9-1.38-2.45-2.45-.57-1.08-.85-2.11-.85-3.15,0-1.12.28-2.2.85-3.21.57-1.02,1.38-1.81,2.45-2.38,1.08-.57,2.11-.85,3.15-.85,1.13,0,2.2.28,3.23.85,1.02.57,1.81,1.35,2.38,2.38.57,1.02.85,2.1.85,3.21,0,1.03-.28,2.06-.85,3.15-.57,1.07-1.37,1.9-2.38,2.45-1.02.57-2.1.85-3.23.85-1.03,0-2.06-.28-3.15-.85ZM228.02,192.8c-1.07-.57-1.9-1.38-2.45-2.45-.57-1.08-.85-2.11-.85-3.15,0-1.12.28-2.2.85-3.21.57-1.02,1.38-1.81,2.45-2.38,1.08-.57,2.11-.85,3.15-.85,1.13,0,2.2.28,3.23.85,1.02.57,1.81,1.35,2.38,2.38.57,1.02.85,2.1.85,3.21,0,1.03-.28,2.06-.85,3.15-.57,1.07-1.37,1.9-2.38,2.45-1.02.57-2.1.85-3.23.85-1.03,0-2.06-.28-3.15-.85ZM231.84,177.49c-1.07-.57-1.9-1.38-2.45-2.45-.57-1.08-.85-2.11-.85-3.15,0-1.12.28-2.2.85-3.21.57-1.02,1.38-1.81,2.45-2.38,1.08-.57,2.11-.85,3.15-.85,1.13,0,2.2.28,3.23.85,1.02.57,1.81,1.35,2.38,2.38.57,1.02.85,2.1.85,3.21,0,1.03-.28,2.06-.85,3.15-.57,1.07-1.37,1.9-2.38,2.45-1.02.57-2.1.85-3.23.85-1.03,0-2.06-.28-3.15-.85ZM231.84,200.48c-1.07-.57-1.9-1.38-2.45-2.45-.57-1.08-.85-2.11-.85-3.15,0-1.12.28-2.2.85-3.21.57-1.02,1.38-1.81,2.45-2.38,1.08-.57,2.11-.85,3.15-.85,1.13,0,2.2.28,3.23.85,1.02.57,1.81,1.35,2.38,2.38.57,1.02.85,2.1.85,3.21,0,1.03-.28,2.06-.85,3.15-.57,1.07-1.37,1.9-2.38,2.45-1.02.57-2.1.85-3.23.85-1.03,0-2.06-.28-3.15-.85ZM235.69,208.14c-1.07-.57-1.9-1.38-2.45-2.45-.57-1.08-.85-2.11-.85-3.15,0-1.12.28-2.2.85-3.21.57-1.02,1.38-1.81,2.45-2.38,1.08-.57,2.11-.85,3.15-.85,1.13,0,2.2.28,3.23.85,1.02.57,1.81,1.35,2.38,2.38.57,1.02.85,2.1.85,3.21,0,1.03-.28,2.06-.85,3.15-.57,1.07-1.37,1.9-2.38,2.45-1.02.57-2.1.85-3.23.85-1.03,0-2.06-.28-3.15-.85ZM239.52,177.49c-1.07-.57-1.9-1.38-2.45-2.45-.57-1.08-.85-2.11-.85-3.15,0-1.12.28-2.2.85-3.21.57-1.02,1.38-1.81,2.45-2.38,1.08-.57,2.11-.85,3.15-.85,1.13,0,2.2.28,3.23.85,1.02.57,1.81,1.35,2.38,2.38.57,1.02.85,2.1.85,3.21,0,1.03-.28,2.06-.85,3.15-.57,1.07-1.37,1.9-2.38,2.45-1.02.57-2.1.85-3.23.85-1.03,0-2.06-.28-3.15-.85ZM239.52,215.81c-1.07-.57-1.9-1.38-2.45-2.45-.57-1.08-.85-2.11-.85-3.15,0-1.12.28-2.2.85-3.21.57-1.02,1.38-1.81,2.45-2.38,1.08-.57,2.11-.85,3.15-.85,1.13,0,2.2.28,3.23.85,1.02.57,1.81,1.35,2.38,2.38.57,1.02.85,2.1.85,3.21,0,1.03-.28,2.06-.85,3.15-.57,1.07-1.37,1.9-2.38,2.45-1.02.57-2.1.85-3.23.85-1.03,0-2.06-.28-3.15-.85ZM243.35,223.47c-1.07-.57-1.9-1.38-2.45-2.45-.57-1.08-.85-2.11-.85-3.15,0-1.12.28-2.2.85-3.21.57-1.02,1.38-1.81,2.45-2.38,1.08-.57,2.11-.85,3.15-.85,1.13,0,2.2.28,3.23.85,1.02.57,1.81,1.35,2.38,2.38.57,1.02.85,2.1.85,3.21,0,1.03-.28,2.06-.85,3.15-.57,1.07-1.37,1.9-2.38,2.45-1.02.57-2.1.85-3.23.85-1.03,0-2.06-.28-3.15-.85ZM247.19,231.15c-1.07-.57-1.9-1.38-2.45-2.45-.57-1.08-.85-2.11-.85-3.15,0-1.12.28-2.2.85-3.21.57-1.02,1.38-1.81,2.45-2.38,1.08-.57,2.11-.85,3.15-.85,1.13,0,2.2.28,3.23.85,1.02.57,1.81,1.35,2.38,2.38.57,1.02.85,2.1.85,3.21,0,1.03-.28,2.06-.85,3.15-.57,1.07-1.37,1.9-2.38,2.45-1.02.57-2.1.85-3.23.85-1.03,0-2.06-.28-3.15-.85ZM251.02,238.8c-1.07-.57-1.9-1.38-2.45-2.45-.57-1.08-.85-2.11-.85-3.15,0-1.12.28-2.2.85-3.21.57-1.02,1.38-1.81,2.45-2.38,1.08-.57,2.11-.85,3.15-.85,1.13,0,2.2.28,3.23.85,1.02.57,1.81,1.35,2.38,2.38.57,1.02.85,2.1.85,3.21,0,1.03-.28,2.06-.85,3.15-.57,1.07-1.37,1.9-2.38,2.45-1.02.57-2.1.85-3.23.85-1.03,0-2.06-.28-3.15-.85ZM254.87,231.15c-1.07-.57-1.9-1.38-2.45-2.45-.57-1.08-.85-2.11-.85-3.15,0-1.12.28-2.2.85-3.21.57-1.02,1.38-1.81,2.45-2.38,1.08-.57,2.11-.85,3.15-.85,1.13,0,2.2.28,3.23.85,1.02.57,1.81,1.35,2.38,2.38.57,1.02.85,2.1.85,3.21,0,1.03-.28,2.06-.85,3.15-.57,1.07-1.37,1.9-2.38,2.45-1.02.57-2.1.85-3.23.85-1.03,0-2.06-.28-3.15-.85ZM258.7,223.47c-1.07-.57-1.9-1.38-2.45-2.45-.57-1.08-.85-2.11-.85-3.15,0-1.12.28-2.2.85-3.21.57-1.02,1.38-1.81,2.45-2.38,1.08-.57,2.11-.85,3.15-.85,1.13,0,2.2.28,3.23.85,1.02.57,1.81,1.35,2.38,2.38.57,1.02.85,2.1.85,3.21,0,1.03-.28,2.06-.85,3.15-.57,1.07-1.37,1.9-2.38,2.45-1.02.57-2.1.85-3.23.85-1.03,0-2.06-.28-3.15-.85ZM262.54,177.49c-1.07-.57-1.9-1.38-2.45-2.45-.57-1.08-.85-2.11-.85-3.15,0-1.12.28-2.2.85-3.21.57-1.02,1.38-1.81,2.45-2.38,1.08-.57,2.11-.85,3.15-.85,1.13,0,2.2.28,3.23.85,1.02.57,1.81,1.35,2.38,2.38.57,1.02.85,2.1.85,3.21,0,1.03-.28,2.06-.85,3.15-.57,1.07-1.37,1.9-2.38,2.45-1.02.57-2.1.85-3.23.85-1.03,0-2.06-.28-3.15-.85ZM262.54,215.81c-1.07-.57-1.9-1.38-2.45-2.45-.57-1.08-.85-2.11-.85-3.15,0-1.12.28-2.2.85-3.21.57-1.02,1.38-1.81,2.45-2.38,1.08-.57,2.11-.85,3.15-.85,1.13,0,2.2.28,3.23.85,1.02.57,1.81,1.35,2.38,2.38.57,1.02.85,2.1.85,3.21,0,1.03-.28,2.06-.85,3.15-.57,1.07-1.37,1.9-2.38,2.45-1.02.57-2.1.85-3.23.85-1.03,0-2.06-.28-3.15-.85ZM266.37,208.14c-1.07-.57-1.9-1.38-2.45-2.45-.57-1.08-.85-2.11-.85-3.15,0-1.12.28-2.2.85-3.21.57-1.02,1.38-1.81,2.45-2.38,1.08-.57,2.11-.85,3.15-.85,1.13,0,2.2.28,3.23.85,1.02.57,1.81,1.35,2.38,2.38.57,1.02.85,2.1.85,3.21,0,1.03-.28,2.06-.85,3.15-.57,1.07-1.37,1.9-2.38,2.45-1.02.57-2.1.85-3.23.85-1.03,0-2.06-.28-3.15-.85ZM270.2,177.49c-1.07-.57-1.9-1.38-2.45-2.45-.57-1.08-.85-2.11-.85-3.15,0-1.12.28-2.2.85-3.21.57-1.02,1.38-1.81,2.45-2.38,1.08-.57,2.11-.85,3.15-.85,1.13,0,2.2.28,3.23.85,1.02.57,1.81,1.35,2.38,2.38.57,1.02.85,2.1.85,3.21,0,1.03-.28,2.06-.85,3.15-.57,1.07-1.37,1.9-2.38,2.45-1.02.57-2.1.85-3.23.85-1.03,0-2.06-.28-3.15-.85ZM270.2,200.48c-1.07-.57-1.9-1.38-2.45-2.45-.57-1.08-.85-2.11-.85-3.15,0-1.12.28-2.2.85-3.21.57-1.02,1.38-1.81,2.45-2.38,1.08-.57,2.11-.85,3.15-.85,1.13,0,2.2.28,3.23.85,1.02.57,1.81,1.35,2.38,2.38.57,1.02.85,2.1.85,3.21,0,1.03-.28,2.06-.85,3.15-.57,1.07-1.37,1.9-2.38,2.45-1.02.57-2.1.85-3.23.85-1.03,0-2.06-.28-3.15-.85ZM274.05,192.8c-1.07-.57-1.9-1.38-2.45-2.45-.57-1.08-.85-2.11-.85-3.15,0-1.12.28-2.2.85-3.21.57-1.02,1.38-1.81,2.45-2.38,1.08-.57,2.11-.85,3.15-.85,1.13,0,2.2.28,3.23.85,1.02.57,1.81,1.35,2.38,2.38.57,1.02.85,2.1.85,3.21,0,1.03-.28,2.06-.85,3.15-.57,1.07-1.37,1.9-2.38,2.45-1.02.57-2.1.85-3.23.85-1.03,0-2.06-.28-3.15-.85ZM277.88,177.49c-1.07-.57-1.9-1.38-2.45-2.45-.57-1.08-.85-2.11-.85-3.15,0-1.12.28-2.2.85-3.21.57-1.02,1.38-1.81,2.45-2.38,1.08-.57,2.11-.85,3.15-.85,1.13,0,2.2.28,3.23.85,1.02.57,1.81,1.35,2.38,2.38.57,1.02.85,2.1.85,3.21,0,1.03-.28,2.06-.85,3.15-.57,1.07-1.37,1.9-2.38,2.45-1.02.57-2.1.85-3.23.85-1.03,0-2.06-.28-3.15-.85ZM277.88,185.15c-1.07-.57-1.9-1.38-2.45-2.45-.57-1.08-.85-2.11-.85-3.15,0-1.12.28-2.2.85-3.21.57-1.02,1.38-1.81,2.45-2.38,1.08-.57,2.11-.85,3.15-.85,1.13,0,2.2.28,3.23.85,1.02.57,1.81,1.35,2.38,2.38.57,1.02.85,2.1.85,3.21,0,1.03-.28,2.06-.85,3.15-.57,1.07-1.37,1.9-2.38,2.45-1.02.57-2.1.85-3.23.85-1.03,0-2.06-.28-3.15-.85ZM285.55,177.49c-1.07-.57-1.9-1.38-2.45-2.45-.57-1.08-.85-2.11-.85-3.15,0-1.12.28-2.2.85-3.21.57-1.02,1.38-1.81,2.45-2.38,1.08-.57,2.11-.85,3.15-.85,1.13,0,2.2.28,3.23.85,1.02.57,1.81,1.35,2.38,2.38.57,1.02.85,2.1.85,3.21,0,1.03-.28,2.06-.85,3.15-.57,1.07-1.37,1.9-2.38,2.45-1.02.57-2.1.85-3.23.85-1.03,0-2.06-.28-3.15-.85Z"/>
  </g>
</svg>